<svg width="24" height="25" viewBox="0 0 24 25" fill="none" xmlns="http://www.w3.org/2000/svg">
    <path fill-rule="evenodd" clip-rule="evenodd" d="M12 12.2561C14.7623 12.2561 17 9.97064 17 7.14942C17 4.32819 14.7623 2.04272 12 2.04272C9.23772 2.04272 7 4.32819 7 7.14942C7 9.97064 9.23772 12.2561 12 12.2561ZM12 4.0854C13.6577 4.0854 15 5.45633 15 7.14942C15 8.8425 13.6577 10.2134 12 10.2134C10.3423 10.2134 9 8.8425 9 7.14942C9 5.45633 10.3423 4.0854 12 4.0854ZM21 21.4482C21 22.0122 20.5523 22.4695 20 22.4695C19.4477 22.4695 19 22.0122 19 21.4482V19.4055C19 17.9142 15.156 16.3415 12 16.3415C8.844 16.3415 5 17.9142 5 19.4055V21.4482C5 22.0122 4.55228 22.4695 4 22.4695C3.44772 22.4695 3 22.0122 3 21.4482V19.4055C3 16.2754 7.83098 14.2988 12 14.2988C16.169 14.2988 21 16.2754 21 19.4055V21.4482Z" fill="#C2D1D9"/>
    <mask id="mask0_211_2407" style="mask-type:luminance" maskUnits="userSpaceOnUse" x="3" y="2" width="18" height="21">
        <path fill-rule="evenodd" clip-rule="evenodd" d="M12 12.2561C14.7623 12.2561 17 9.97064 17 7.14942C17 4.32819 14.7623 2.04272 12 2.04272C9.23772 2.04272 7 4.32819 7 7.14942C7 9.97064 9.23772 12.2561 12 12.2561ZM12 4.0854C13.6577 4.0854 15 5.45633 15 7.14942C15 8.8425 13.6577 10.2134 12 10.2134C10.3423 10.2134 9 8.8425 9 7.14942C9 5.45633 10.3423 4.0854 12 4.0854ZM21 21.4482C21 22.0122 20.5523 22.4695 20 22.4695C19.4477 22.4695 19 22.0122 19 21.4482V19.4055C19 17.9142 15.156 16.3415 12 16.3415C8.844 16.3415 5 17.9142 5 19.4055V21.4482C5 22.0122 4.55228 22.4695 4 22.4695C3.44772 22.4695 3 22.0122 3 21.4482V19.4055C3 16.2754 7.83098 14.2988 12 14.2988C16.169 14.2988 21 16.2754 21 19.4055V21.4482Z" fill="white"/>
    </mask>
    <g mask="url(#mask0_211_2407)">
        <rect width="24" height="24.5121" fill="#424B5A"/>
    </g>
</svg>
