<svg width="12" height="12" viewBox="0 0 12 12" fill="none" xmlns="http://www.w3.org/2000/svg">
    <path d="M7.70006 4.93946L5.40556 2.64646C5.31036 2.56038 5.1857 2.5142 5.05739 2.5175C4.92908 2.52079 4.80696 2.5733 4.7163 2.66416C4.62564 2.75501 4.57339 2.87725 4.57036 3.00556C4.56734 3.13387 4.61378 3.25844 4.70006 3.35346L6.99306 5.64646C7.0868 5.74022 7.13946 5.86738 7.13946 5.99996C7.13946 6.13254 7.0868 6.25969 6.99306 6.35346L4.70006 8.64646C4.60631 8.74028 4.55366 8.8675 4.55371 9.00013C4.55376 9.13277 4.60649 9.25995 4.70031 9.35371C4.79413 9.44746 4.92135 9.50011 5.05399 9.50006C5.18662 9.50001 5.31381 9.44728 5.40756 9.35346L7.70006 7.06046C7.98127 6.77917 8.13924 6.3977 8.13924 5.99996C8.13924 5.60221 7.98127 5.22075 7.70006 4.93946Z" fill="#CCC8DA"/>
</svg>
