<svg width="24" height="25" viewBox="0 0 24 25" fill="none" xmlns="http://www.w3.org/2000/svg">
    <path fill-rule="evenodd" clip-rule="evenodd" d="M1 4.08518C1 4.64925 1.44772 5.10652 2 5.10652H4.17058L7.2322 11.8258C7.2306 11.8293 7.22901 11.8329 7.22744 11.8364L6.17669 14.2191C5.72306 15.2477 6.17176 16.4571 7.17889 16.9204C7.43709 17.0392 7.71706 17.1006 8.00025 17.1006H18.5021C19.0544 17.1006 19.5021 16.6434 19.5021 16.0793C19.5021 15.5152 19.0544 15.058 18.5021 15.058H8.00025L8.66971 13.5399H17.7133L21.939 6.00191C22.2135 5.51239 22.0474 4.88836 21.5681 4.60809C21.0888 4.32782 20.4778 4.49744 20.2034 4.98696L16.5538 11.4972H9.28845L5.44581 3.06384H2C1.44772 3.06384 1 3.52111 1 4.08518ZM11 20.4266C11 21.5547 10.1046 22.4693 9 22.4693C7.89543 22.4693 7 21.5547 7 20.4266C7 19.2985 7.89543 18.3839 9 18.3839C10.1046 18.3839 11 19.2985 11 20.4266ZM17 22.4693C18.1046 22.4693 19 21.5547 19 20.4266C19 19.2985 18.1046 18.3839 17 18.3839C15.8954 18.3839 15 19.2985 15 20.4266C15 21.5547 15.8954 22.4693 17 22.4693Z" fill="#C2D1D9"/>
    <mask id="mask0_211_2409" style="mask-type:luminance" maskUnits="userSpaceOnUse" x="1" y="3" width="22" height="20">
        <path fill-rule="evenodd" clip-rule="evenodd" d="M1 4.08518C1 4.64925 1.44772 5.10652 2 5.10652H4.17058L7.2322 11.8258C7.2306 11.8293 7.22901 11.8329 7.22744 11.8364L6.17669 14.2191C5.72306 15.2477 6.17176 16.4571 7.17889 16.9204C7.43709 17.0392 7.71706 17.1006 8.00025 17.1006H18.5021C19.0544 17.1006 19.5021 16.6434 19.5021 16.0793C19.5021 15.5152 19.0544 15.058 18.5021 15.058H8.00025L8.66971 13.5399H17.7133L21.939 6.00191C22.2135 5.51239 22.0474 4.88836 21.5681 4.60809C21.0888 4.32782 20.4778 4.49744 20.2034 4.98696L16.5538 11.4972H9.28845L5.44581 3.06384H2C1.44772 3.06384 1 3.52111 1 4.08518ZM11 20.4266C11 21.5547 10.1046 22.4693 9 22.4693C7.89543 22.4693 7 21.5547 7 20.4266C7 19.2985 7.89543 18.3839 9 18.3839C10.1046 18.3839 11 19.2985 11 20.4266ZM17 22.4693C18.1046 22.4693 19 21.5547 19 20.4266C19 19.2985 18.1046 18.3839 17 18.3839C15.8954 18.3839 15 19.2985 15 20.4266C15 21.5547 15.8954 22.4693 17 22.4693Z" fill="white"/>
    </mask>
    <g mask="url(#mask0_211_2409)">
        <rect y="-0.00012207" width="24" height="24.5121" fill="#424B5A"/>
    </g>
</svg>
