<svg width="23" height="22" viewBox="0 0 23 22" fill="none" xmlns="http://www.w3.org/2000/svg">
<rect x="1.38379" y="0.5" width="20.912" height="21" rx="2.5" fill="#424B5A" stroke="#424B5A"/>
<path d="M16.8958 7.00281C16.666 7.00946 16.4471 7.10712 16.288 7.27357C14.1018 9.47294 12.1124 11.6412 9.98814 13.8073L7.30021 11.6479C6.9178 11.3416 6.36297 11.4038 6.05792 11.7855C5.75288 12.1672 5.81477 12.7265 6.19718 13.0328L9.51289 15.696C9.86656 15.9801 10.375 15.949 10.6933 15.6272C13.0695 13.2369 15.2071 10.88 17.5457 8.52527C17.8972 8.18571 17.906 7.62201 17.5678 7.26913C17.391 7.08936 17.1478 6.99171 16.8958 7.00281Z" fill="white"/>
</svg>
