<svg width="100" height="52" viewBox="0 0 100 52" fill="none" xmlns="http://www.w3.org/2000/svg">
    <g clip-path="url(#clip0_211_2377)">
        <path d="M37.9893 7.38835C37.9893 5.37705 38.0119 3.34315 37.9893 1.33185C37.9893 0.857276 38.1249 0.721681 38.5768 0.74428C39.0514 0.766879 39.5486 0.812075 40.0232 0.72168C43.8198 0.72168 47.6164 0.72168 51.4356 0.72168C55.8198 0.72168 60.2266 0.721681 64.6107 0.74428C64.6785 0.857274 64.8141 0.970267 64.8141 1.06066C64.6107 3.02676 64.7689 5.01547 64.7463 7.00417C64.7463 7.50134 64.5881 7.61433 64.1136 7.61433C61.3791 7.59174 58.6446 7.59173 55.9328 7.59173C55.7294 7.59173 55.526 7.61433 55.3226 7.61433C55.074 7.61433 54.9384 7.70473 54.961 7.97592C54.961 8.04371 54.961 8.13411 54.961 8.20191C54.961 12.6765 54.961 17.1511 54.961 21.6256C54.961 21.7838 54.9836 21.9646 54.9836 22.1228C54.9836 24.2697 54.961 26.4166 54.961 28.5635C54.961 30.8686 54.9836 33.1963 54.9836 35.5013C54.961 35.5239 54.961 35.5691 54.9836 35.5917C54.961 36.0663 54.961 36.5635 54.9384 37.0381C52.5655 37.0381 50.1927 37.0607 47.8198 37.0607V37.0381C47.8198 27.6369 47.8198 18.2584 47.8198 8.85727C47.8198 7.59174 47.8198 7.59173 46.5316 7.59173C44.091 7.59173 41.6277 7.61433 39.187 7.59173C38.7576 7.59173 38.3283 7.68213 37.9893 7.38835Z" fill="#424B5A"/>
        <path d="M72.1356 14.6427C71.6836 14.1681 71.2316 13.671 70.757 13.219C70.4858 12.9478 70.3955 12.6992 70.531 12.2924C71.435 9.76137 72.3164 7.20769 73.1977 4.65402C73.2203 4.56363 73.2429 4.47323 73.2655 4.38284C73.4237 3.99866 73.5593 3.59188 73.7175 3.20769C74.0565 2.37154 74.1921 1.46758 74.7118 0.699219C77.6045 0.699219 80.4971 0.699219 83.3672 0.699219C83.5706 0.925207 83.6384 1.21899 83.7288 1.49018C84.3842 3.34329 85.0395 5.1964 85.6949 7.0495C85.8983 7.63707 86.0791 8.22464 86.2825 8.83481C86.2599 8.90261 86.2825 8.94781 86.3503 8.97041C86.4632 9.26419 86.5084 9.58057 86.6892 9.85176C86.7118 9.87436 86.7118 9.91956 86.7344 9.94216C87.0056 10.7331 87.2316 11.5467 87.548 12.3376C87.661 12.654 87.6836 12.88 87.4124 13.106C85.6949 14.8461 83.9774 16.6088 82.2373 18.3715C81.9209 17.8066 81.8983 17.1738 81.5141 16.7218C81.5141 16.5862 81.4915 16.4506 81.4915 16.315C81.4689 16.1116 81.4011 15.9309 81.2881 15.7727V15.7501C81.2881 15.7049 81.2881 15.6823 81.2881 15.6371C80.6327 13.671 79.9774 11.7049 79.3446 9.73877C79.322 9.64837 79.2994 9.49018 79.1638 9.51278C78.9604 9.51278 78.8926 9.69357 78.8248 9.82917C78.6214 10.3715 78.4407 10.9139 78.2599 11.4563C77.8531 12.7444 77.3107 13.9874 77.0395 15.2981L76.9717 15.3207C76.5197 16.1342 76.339 17.0382 76.0452 17.9196C75.9096 18.3489 75.7966 18.3715 75.4802 18.0326C74.6892 17.1964 73.8757 16.4054 73.0621 15.5919L73.0395 15.5467H72.9943V15.5241H72.9717C72.9491 15.5015 72.9265 15.4563 72.9039 15.4337L72.8813 15.4111C72.8587 15.2981 72.7909 15.2529 72.6779 15.2077V15.1851H72.6553C72.6327 15.0721 72.5649 15.0269 72.4519 15.0043C72.3616 14.9139 72.2938 14.8009 72.2034 14.7105C72.1808 14.6879 72.1582 14.6653 72.1356 14.6427Z" fill="#424B5A"/>
        <path d="M89.6501 18.3262C90.0117 19.0268 89.7179 19.5014 89.1529 19.9081C89.0625 19.9759 89.0173 20.1115 88.9269 20.2019C87.6388 21.3771 86.4636 22.6652 85.2659 23.9081C84.9043 24.1793 84.6331 24.5409 84.3619 24.8799C84.2263 24.9929 84.0908 25.0833 83.9778 25.1963C82.6218 26.5974 81.2659 27.9985 79.8874 29.3997C79.6162 29.6709 79.3676 30.0776 79.0512 30.168C78.667 30.281 78.4862 29.6935 78.1247 29.5579C77.5371 28.6991 76.7687 28.0211 76.0004 27.3206C75.9778 27.185 75.91 27.072 75.7518 27.0494C75.6614 26.959 75.5936 26.8686 75.5032 26.7782C75.4806 26.7556 75.458 26.733 75.4354 26.7104C75.4354 26.6878 75.4128 26.6652 75.3902 26.6652V26.62L75.345 26.5974C75.345 26.5748 75.3224 26.5522 75.2998 26.5522C75.2772 26.4618 75.2094 26.394 75.119 26.3714C75.0286 26.281 74.9156 26.1906 74.8252 26.1002V26.055H74.78C74.78 26.0324 74.78 26.0098 74.7348 26.0098C74.7122 25.9872 74.6896 25.9646 74.667 25.942C74.6218 25.829 74.554 25.7161 74.4184 25.6709C74.0117 25.2415 73.6275 24.8121 73.1981 24.3827C71.5032 22.6878 69.8987 20.8799 68.0908 19.2754C68.1811 18.507 68.5653 17.8516 68.7913 17.1285C68.8591 16.8573 69.0173 16.6313 68.9721 16.3375C69.3563 15.8178 69.4015 15.185 69.6501 14.62C69.7857 14.3036 69.9213 14.3036 70.1472 14.4618C70.2376 14.6878 70.441 14.8234 70.6218 15.0042C71.9552 16.3827 73.3111 17.7387 74.6444 19.1172L74.667 19.1398C74.8252 19.411 75.0286 19.637 75.3224 19.7726L75.345 19.7951C75.6388 20.2245 76.0004 20.6087 76.4297 20.9251C76.4523 21.0607 76.5427 21.1059 76.6557 21.1511C76.6783 21.2867 76.7461 21.3771 76.8817 21.3771C76.9269 21.4901 76.9947 21.5579 77.1077 21.6031C77.6501 22.2584 78.2602 22.846 78.8478 23.4336C78.9608 23.5466 79.0738 23.6144 79.2094 23.4562C79.6388 22.9816 80.0682 22.507 80.4749 22.0324C80.7913 21.8291 81.0173 21.5353 81.2659 21.2415H81.2885C81.3337 21.2415 81.3563 21.2189 81.3563 21.1963C81.4467 21.1059 81.6049 21.0833 81.5823 20.9251C81.6049 20.9025 81.6275 20.8799 81.6049 20.8573C81.7179 20.7895 81.8535 20.7669 81.9439 20.6765C82.667 19.863 83.5258 19.1624 84.1811 18.281C84.9721 17.6483 85.6275 16.8573 86.328 16.1341C86.667 15.7952 87.0964 15.524 87.2772 15.0268C87.3224 14.9816 87.3676 14.9364 87.4128 14.8912C87.571 14.7782 87.7744 14.6878 87.8874 14.5296C88.1585 14.1906 88.2489 14.4392 88.3845 14.6426V14.6652C88.4749 15.0946 88.5879 15.5014 88.8139 15.8855C88.9947 16.7217 89.3337 17.5127 89.6501 18.3262Z" fill="#424B5A"/>
        <path d="M11.819 1.39974C12.5874 1.12855 13.3783 0.857366 14.1467 0.586179C14.3275 0.676575 14.4631 0.563585 14.6213 0.540986C15.7286 0.337596 16.836 0.111605 17.9659 0.043808C20.045 -0.0917852 22.1241 0.0890099 24.158 0.563586C24.4066 0.608784 24.6326 0.744373 24.9038 0.721774C25.9207 1.12855 26.9603 1.46754 27.932 1.94211C29.5139 2.77827 30.9828 3.75002 32.271 4.99296C33.2653 5.94211 34.1241 6.98166 34.8247 8.1794C35.0054 8.47319 35.0054 8.63138 34.6439 8.81217C33.6269 9.37715 32.5648 9.91952 31.6156 10.5975C31.141 10.7783 30.7117 11.0721 30.3049 11.3658C30.2145 11.411 30.1467 11.4562 30.0563 11.5014C29.8981 11.5014 29.8077 11.5692 29.7173 11.7048C29.6269 11.75 29.5365 11.75 29.4687 11.8178C29.0619 12.1342 28.7908 12.0664 28.5196 11.6144C28.2484 11.1625 27.9772 10.6879 27.5252 10.3941C27.141 9.73873 26.5083 9.33195 25.9207 8.90257C25.4913 8.58618 25.1071 8.202 24.5196 8.1794C24.384 7.95341 24.1354 7.88561 23.9094 7.81782C23.1636 7.56923 22.3953 7.36585 21.5817 7.23025C20.8812 7.11726 20.1806 6.95906 19.4574 7.04946C17.9207 7.02686 16.4066 7.09465 14.9829 7.70482C13.5365 8.1342 12.2936 8.90256 11.2314 9.96471C10.5309 10.5523 9.96586 11.2754 9.49129 12.0438C8.36134 13.8291 7.81897 15.7726 7.70598 17.8743C7.47999 21.6709 8.38394 25.0834 11.254 27.7726C11.593 28.1568 11.9772 28.4732 12.4292 28.6992C13.1071 29.3319 13.9433 29.6709 14.8021 29.9873C16.836 30.7105 18.8925 30.9591 21.0393 30.6653C21.7399 30.6201 22.3953 30.4393 23.0506 30.1907C24.1806 29.9421 25.1975 29.4449 26.1015 28.7218C26.4405 28.541 26.7343 28.3376 26.9602 28.0212C27.1636 27.9308 27.3218 27.7952 27.4122 27.5918C27.8868 27.2528 28.158 26.7331 28.4518 26.2585C28.6326 25.9647 28.723 25.4675 29.2653 25.8291C29.8529 26.2811 30.5083 26.6201 31.1636 26.9365C32.158 27.6144 33.2427 28.1794 34.2823 28.767C34.3727 28.8574 34.4857 28.8348 34.5987 28.8122C34.6439 29.0608 35.141 29.0608 34.9151 29.4449C34.5309 30.1003 34.1241 30.7105 33.6269 31.2754C32.9264 32.089 32.2258 32.9026 31.3896 33.5805C31.3444 33.6257 31.2992 33.6483 31.254 33.6935C31.141 33.7161 31.0732 33.7839 31.028 33.8969C30.3049 34.3941 29.5817 34.8687 28.8586 35.3658C28.8134 35.3884 28.7682 35.411 28.723 35.4336C28.6778 35.4562 28.6552 35.4562 28.61 35.4788C28.4292 35.5014 28.2936 35.637 28.1354 35.7274C27.3444 36.1568 26.4857 36.428 25.6947 36.8122C25.1071 36.9704 24.497 37.106 23.932 37.2867C23.6382 37.3997 23.254 37.2867 23.028 37.5805C22.5083 37.6257 22.0111 37.6709 21.4913 37.7161C20.045 37.7161 18.5761 37.7161 17.1297 37.7161C16.4744 37.5353 15.7964 37.6483 15.1184 37.5127C15.0055 37.4675 14.9377 37.3093 14.8021 37.3771C14.7117 37.3319 14.6439 37.2867 14.5535 37.2641C13.1071 36.9026 11.706 36.4054 10.3727 35.7048C9.12971 35.0495 7.99976 34.2133 6.89242 33.3545C6.82462 33.2189 6.73422 33.1512 6.59863 33.106L6.57603 33.1512L6.62123 33.1286C6.16925 32.654 5.69468 32.202 5.2427 31.7274L5.2201 31.7048C5.1523 31.5692 5.06191 31.4336 4.90372 31.3658C3.93196 30.1003 3.05061 28.7896 2.32744 27.3432C1.80767 26.2811 1.42349 25.1512 1.08451 24.0438C0.881113 23.3206 0.76812 22.5297 0.677724 21.7387C0.722922 21.6257 0.700324 21.5353 0.655126 21.4449C0.700324 21.106 0.609928 20.767 0.542132 20.428C0.542132 20.202 0.54213 19.976 0.519531 19.75C0.519531 19.2303 0.519531 18.7105 0.519531 18.1907C0.54213 17.6709 0.587328 17.1512 0.609927 16.6314C0.790718 15.8178 0.881114 14.9817 1.06191 14.1681C1.78507 10.7557 3.50259 7.93082 5.87547 5.42234C7.57038 3.68223 9.60428 2.39409 11.819 1.39974Z" fill="#424B5A"/>
        <path d="M95.0737 33.6933C95.2997 34.6198 95.6613 35.5012 96.0003 36.4051C96.2263 37.0153 96.2037 37.0605 95.5709 37.0605C93.424 37.0605 91.2771 37.0379 89.1302 37.0831C88.6104 37.0831 88.2941 36.9927 88.1585 36.4729C88.0003 35.6368 87.5935 34.891 87.3675 34.0775C87.0285 32.9249 86.6217 31.8176 86.2376 30.6876C86.1924 30.552 86.0568 30.5746 85.9664 30.5746C84.2941 30.5746 82.6443 30.5746 80.972 30.5746C80.859 30.5068 80.7234 30.4164 80.8816 30.2809C81.1076 30.0775 81.2884 29.8741 81.4918 29.6707C82.4184 28.7893 83.3449 27.9306 84.1585 26.9362C84.4975 26.6876 84.8138 26.3938 85.0624 26.0323C85.4014 25.8063 85.5822 25.4447 85.8534 25.1509C87.2771 23.908 88.5652 22.5294 89.8534 21.1735C90.328 20.6763 90.4184 20.6763 90.6669 21.3317C90.9833 22.1679 91.2771 22.9814 91.5935 23.8176V23.8402C91.6387 24.0888 91.6839 24.3599 91.8421 24.5633V24.5859C91.9099 24.8571 91.9325 25.1509 92.1359 25.3769C92.1133 25.5125 92.1359 25.6255 92.2489 25.7385C92.3393 26.4842 92.7912 27.117 92.972 27.8176C93.0624 28.2018 93.1754 28.5859 93.3788 28.9475C93.65 29.9193 93.989 30.8684 94.3958 31.795C94.5765 32.4277 94.7799 33.0605 95.0737 33.6933Z" fill="#424B5A"/>
        <path d="M74.757 27.795C74.7796 27.908 74.8474 27.9758 74.9604 28.021V28.0436H74.983C75.5931 28.699 76.2259 29.3543 76.8361 29.9871C76.949 30.1227 77.175 30.2357 77.1072 30.4165C77.0394 30.5747 76.7909 30.4617 76.6553 30.5295C75.1185 30.5295 73.6044 30.5069 72.0677 30.5069C71.7965 30.5069 71.6383 30.5973 71.6835 30.8911C71.4123 31.7272 71.1411 32.5408 70.8474 33.3769L70.8248 33.3995L70.8474 33.4221C70.757 33.5351 70.6892 33.6481 70.7118 33.7837C70.6666 33.9645 70.5536 34.1227 70.5762 34.3261C70.5084 34.3939 70.4632 34.4617 70.4858 34.5521C70.3728 34.9137 70.2372 35.2752 70.1242 35.6368C70.0112 35.7272 70.0112 35.8402 70.0112 35.9758C69.8304 36.247 69.7626 36.5634 69.6948 36.8798C69.5366 37.038 69.3106 36.9928 69.1072 36.9928C66.8926 36.9928 64.7005 36.9928 62.4858 36.9928C62.0112 36.9928 61.8982 36.9024 62.0564 36.4278C62.5536 35.0493 63.0507 33.6933 63.5027 32.2922C64.2033 30.0775 65.1298 27.908 65.7852 25.6707C65.8078 25.6255 65.8304 25.5577 65.853 25.5125C65.8982 25.4899 65.8982 25.4673 65.8982 25.4221C66.2598 24.5408 66.5762 23.6594 66.8022 22.7329C66.9604 22.3261 67.1185 21.9193 67.2541 21.5125C67.2767 21.4447 67.3219 21.3769 67.3445 21.3091C67.5931 20.5634 67.5931 20.5634 68.1581 21.0832H68.1807C68.2485 21.1284 68.2937 21.1736 68.3615 21.2188C68.4519 21.3317 68.5197 21.4221 68.6553 21.4673C69.6496 22.6425 70.8248 23.682 71.9095 24.7894C72.5875 25.5125 73.3106 26.1905 74.0112 26.9137C74.192 27.343 74.4858 27.569 74.757 27.795Z" fill="#424B5A"/>
        <path d="M13.9658 18.6425C14.0336 18.5295 14.0336 18.4165 13.9884 18.3035C14.124 17.6481 14.3273 17.0154 14.5759 16.4052C15.2539 15.2074 16.2934 14.4165 17.5138 13.8741C18.3951 13.6255 19.2991 13.6029 20.2031 13.6481C20.316 13.7385 20.429 13.7611 20.5646 13.7611C20.9036 13.8967 21.22 14.0775 21.5816 14.0775C22.3499 14.6425 23.1409 15.1848 23.7059 15.9758C24.6776 17.7159 24.8132 19.5012 23.9545 21.3091C23.9319 21.3317 23.9319 21.3543 23.9319 21.3769C23.7963 21.5577 23.6155 21.7159 23.5703 21.9645H23.5477V21.9871C23.0505 22.5069 22.5533 23.0266 21.9432 23.4108C20.8584 24.0888 19.6833 24.134 18.4629 24.0888C18.237 24.2922 18.1014 24.021 17.9206 23.9984C17.672 23.908 17.4008 23.8176 17.1522 23.7498C16.4064 23.456 15.8415 22.9363 15.2765 22.3939C14.5985 21.5351 14.2144 20.5634 13.9884 19.5238C13.9884 19.4334 13.9658 19.3656 13.9658 19.2752C14.0562 19.0719 13.9884 18.8459 13.9658 18.6425Z" fill="#424B5A"/>
        <path d="M6.21469 47.6366C6.21469 49.9869 4.79096 51.2524 3.05085 51.2524C1.24294 51.2524 0 49.8513 0 47.7722C0 45.6027 1.33333 44.179 3.14124 44.179C5.01695 44.1564 6.21469 45.5801 6.21469 47.6366ZM0.926553 47.727C0.926553 49.1959 1.71751 50.5067 3.09604 50.5067C4.49717 50.5067 5.26554 49.2185 5.26554 47.6592C5.26554 46.3033 4.56497 44.8795 3.09604 44.8795C1.64972 44.8795 0.926553 46.2355 0.926553 47.727Z" fill="#424B5A"/>
        <path d="M7.34473 44.2695H11.0057V45.0153H8.22609V47.2978H10.8023V48.0209H8.22609V51.117H7.34473V44.2695Z" fill="#424B5A"/>
        <path d="M12.2715 44.2695H15.9326V45.0153H13.1529V47.2978H15.7292V48.0209H13.1529V51.117H12.2715V44.2695Z" fill="#424B5A"/>
        <path d="M18.0795 44.2695V51.117H17.1982V44.2695H18.0795Z" fill="#424B5A"/>
        <path d="M24.3615 50.9138C24.0451 51.072 23.3898 51.2302 22.5536 51.2302C20.6327 51.2302 19.209 50.0098 19.209 47.75C19.209 45.6031 20.6553 44.1567 22.757 44.1567C23.5932 44.1567 24.1355 44.3375 24.3615 44.4505L24.1355 45.1737C23.7966 45.0155 23.322 44.9025 22.757 44.9025C21.1525 44.9025 20.1129 45.9194 20.1129 47.7274C20.1129 49.3997 21.0621 50.4844 22.7118 50.4844C23.2542 50.4844 23.7966 50.3714 24.1581 50.2132L24.3615 50.9138Z" fill="#424B5A"/>
        <path d="M28.9717 47.9078H26.3276V50.3937H29.2881V51.1394H25.4463V44.292H29.1299V45.0378H26.3276V47.2072H28.9717V47.9078Z" fill="#424B5A"/>
        <path d="M32.5645 44.3599C33.1069 44.2695 33.7397 44.2017 34.4402 44.2017C35.7058 44.2017 36.6097 44.4954 37.1973 45.0604C37.8075 45.6254 38.1691 46.4164 38.1691 47.5237C38.1691 48.6536 37.8301 49.5576 37.1973 50.1904C36.5645 50.8231 35.5024 51.1847 34.1917 51.1847C33.5589 51.1847 33.0391 51.1621 32.5871 51.1169V44.3599H32.5645ZM33.4459 50.4163C33.6719 50.4615 33.9883 50.4615 34.3273 50.4615C36.203 50.4615 37.2199 49.3994 37.2199 47.5463C37.2199 45.9192 36.316 44.9022 34.4628 44.9022C34.0109 44.9022 33.6719 44.9474 33.4233 44.9926V50.4163H33.4459Z" fill="#424B5A"/>
        <path d="M42.8027 47.9078H40.1586V50.3937H43.1191V51.1394H39.2773V44.292H42.9609V45.0378H40.1586V47.2072H42.8027V47.9078Z" fill="#424B5A"/>
        <path d="M44.1353 50.0549C44.5194 50.3035 45.107 50.5069 45.6946 50.5069C46.5985 50.5069 47.1183 50.0323 47.1183 49.3317C47.1183 48.699 46.7567 48.3148 45.8302 47.9758C44.7228 47.569 44.0223 46.9815 44.0223 46.0323C44.0223 44.9702 44.9036 44.1792 46.2369 44.1792C46.9375 44.1792 47.4347 44.3374 47.7285 44.5182L47.4799 45.2413C47.2539 45.1057 46.8019 44.925 46.1917 44.925C45.2652 44.925 44.9036 45.4899 44.9036 45.9419C44.9036 46.5747 45.3104 46.8911 46.2595 47.2526C47.4121 47.7046 47.9997 48.2696 47.9997 49.2639C47.9997 50.3261 47.2313 51.23 45.6268 51.23C44.9714 51.23 44.2482 51.0267 43.8867 50.7781L44.1353 50.0549Z" fill="#424B5A"/>
        <path d="M50.1246 44.2695V51.117H49.2432V44.2695H50.1246Z" fill="#424B5A"/>
        <path d="M56.8359 50.8231C56.4517 50.9813 55.6608 51.2073 54.7342 51.2073C53.6947 51.2073 52.8585 50.9361 52.1805 50.3034C51.593 49.7384 51.2314 48.8344 51.2314 47.7497C51.2314 45.7158 52.6325 44.2017 54.915 44.2017C55.706 44.2017 56.3161 44.3825 56.6099 44.518L56.3839 45.2412C56.0223 45.083 55.5704 44.9474 54.8698 44.9474C53.2201 44.9474 52.1353 45.987 52.1353 47.7045C52.1353 49.4446 53.1749 50.4615 54.7568 50.4615C55.3218 50.4615 55.7286 50.3712 55.932 50.2808V48.2469H54.5986V47.5463H56.8359V50.8231Z" fill="#424B5A"/>
        <path d="M58.1689 51.117V44.2695H59.1407L61.3102 47.7272C61.8074 48.5407 62.2141 49.2413 62.5305 49.9644H62.5531C62.4627 49.0605 62.4627 48.2243 62.4627 47.1622V44.2921H63.2989V51.1396H62.3949L60.2254 47.6594C59.7509 46.891 59.2989 46.1 58.9599 45.3543H58.9373C58.9825 46.213 59.0051 47.0492 59.0051 48.1791V51.117H58.1689Z" fill="#424B5A"/>
        <path d="M71.2085 51.1172C71.0051 50.9138 70.847 50.733 70.5758 50.4392C69.9883 50.9816 69.3329 51.2302 68.5871 51.2302C67.2764 51.2302 66.4854 50.3262 66.4854 49.3093C66.4854 48.3827 67.0503 47.7274 67.8187 47.298V47.2754C67.4797 46.8234 67.2538 46.3262 67.2538 45.8517C67.2538 45.0155 67.864 44.1567 68.9939 44.1567C69.8301 44.1567 70.5079 44.7217 70.5079 45.6031C70.5079 46.3262 70.0786 46.8912 69.0164 47.4336V47.4788C69.604 48.1567 70.2369 48.9025 70.6662 49.3771C70.9826 48.9025 71.1859 48.2471 71.3215 47.3658H72.1351C71.9543 48.4505 71.6606 49.2867 71.1634 49.8968C71.525 50.281 71.8866 50.6652 72.2933 51.1172H71.2085ZM70.1464 49.9421C69.7396 49.4901 68.9938 48.6539 68.2254 47.7952C67.8639 48.0211 67.3441 48.4731 67.3441 49.1963C67.3441 49.9872 67.9091 50.5748 68.7226 50.5748C69.3328 50.5522 69.83 50.3036 70.1464 49.9421ZM68.0674 45.7613C68.0674 46.2584 68.2933 46.62 68.5871 47.0042C69.2877 46.5974 69.717 46.2358 69.717 45.6709C69.717 45.2415 69.491 44.7895 68.926 44.7895C68.361 44.7669 68.0674 45.2415 68.0674 45.7613Z" fill="#424B5A"/>
        <path d="M75.209 44.3599C75.5932 44.2695 76.2033 44.2017 76.8135 44.2017C77.6949 44.2017 78.2598 44.3599 78.6892 44.6988C79.0508 44.97 79.2542 45.3768 79.2542 45.9192C79.2542 46.5745 78.8248 47.1621 78.1016 47.4107V47.4333C78.757 47.5915 79.5028 48.1339 79.5028 49.1508C79.5028 49.7384 79.2768 50.1904 78.9152 50.5068C78.4406 50.9587 77.6723 51.1395 76.5649 51.1395C75.9547 51.1395 75.5028 51.0943 75.209 51.0717V44.3599ZM76.0903 47.1621H76.9039C77.8305 47.1621 78.3728 46.6649 78.3728 46.0096C78.3728 45.2186 77.7853 44.9022 76.8813 44.9022C76.4745 44.9022 76.2485 44.9248 76.0903 44.97V47.1621ZM76.0903 50.4389C76.2711 50.4841 76.5197 50.4842 76.8361 50.4842C77.7401 50.4842 78.5988 50.1452 78.5988 49.1508C78.5988 48.2243 77.8079 47.8175 76.8361 47.8175H76.1129V50.4389H76.0903Z" fill="#424B5A"/>
        <path d="M81.5593 44.2697V48.3375C81.5593 49.8742 82.2372 50.507 83.1412 50.507C84.1355 50.507 84.7909 49.829 84.7909 48.3375V44.2697H85.6722V48.2697C85.6722 50.3714 84.5649 51.2301 83.096 51.2301C81.7174 51.2301 80.6553 50.4392 80.6553 48.2923V44.2471H81.5593V44.2697Z" fill="#424B5A"/>
        <path d="M88.0903 44.2695V51.117H87.209V44.2695H88.0903Z" fill="#424B5A"/>
        <path d="M89.627 44.2695H90.5083V50.3712H93.4236V51.117H89.627V44.2695Z" fill="#424B5A"/>
        <path d="M94.3955 44.3599C94.9379 44.2695 95.5706 44.2017 96.2712 44.2017C97.5367 44.2017 98.4407 44.4954 99.0283 45.0604C99.6384 45.6254 100 46.4164 100 47.5237C100 48.6536 99.661 49.5576 99.0283 50.1904C98.3955 50.8231 97.3334 51.1847 96.0226 51.1847C95.3899 51.1847 94.8701 51.1621 94.4181 51.1169V44.3599H94.3955ZM95.2769 50.4163C95.5029 50.4615 95.8192 50.4615 96.1582 50.4615C98.0339 50.4615 99.0509 49.3994 99.0509 47.5463C99.0509 45.9192 98.1469 44.9022 96.2938 44.9022C95.8418 44.9022 95.5028 44.9474 95.2543 44.9926V50.4163H95.2769Z" fill="#424B5A"/>
    </g>
    <defs>
        <clipPath id="clip0_211_2377">
            <rect width="100" height="52" fill="white"/>
        </clipPath>
    </defs>
</svg>
