<svg width="9" height="9" viewBox="0 0 9 9" fill="none" xmlns="http://www.w3.org/2000/svg">
    <path d="M4.58516 8.956C4.44649 8.956 4.33982 8.91867 4.26516 8.844C4.20116 8.76933 4.16916 8.668 4.16916 8.54V5.308H1.00116C0.873156 5.308 0.771823 5.276 0.697156 5.212C0.62249 5.13733 0.585156 5.036 0.585156 4.908C0.585156 4.78 0.62249 4.684 0.697156 4.62C0.771823 4.54533 0.873156 4.508 1.00116 4.508H4.16916V1.372C4.16916 1.244 4.20116 1.14267 4.26516 1.068C4.33982 0.993333 4.44649 0.955999 4.58516 0.955999C4.72382 0.955999 4.82516 0.993333 4.88916 1.068C4.96382 1.14267 5.00116 1.244 5.00116 1.372V4.508H8.16916C8.30782 4.508 8.40916 4.54533 8.47316 4.62C8.54782 4.684 8.58516 4.78 8.58516 4.908C8.58516 5.04667 8.54782 5.148 8.47316 5.212C8.40916 5.276 8.30782 5.308 8.16916 5.308H5.00116V8.54C5.00116 8.668 4.96382 8.76933 4.88916 8.844C4.82516 8.91867 4.72382 8.956 4.58516 8.956Z" fill="#424B5A"/>
</svg>
