<svg width="14" height="17" viewBox="0 0 14 17" fill="none" xmlns="http://www.w3.org/2000/svg">
<path d="M12.7699 7C12.7699 11.6667 6.71551 15.6667 6.71551 15.6667C6.71551 15.6667 0.661133 11.6667 0.661133 7C0.661133 5.4087 1.299 3.88258 2.43442 2.75736C3.56984 1.63214 5.10979 1 6.71551 1C8.32124 1 9.86119 1.63214 10.9966 2.75736C12.132 3.88258 12.7699 5.4087 12.7699 7Z" stroke="#424B5A" stroke-linecap="round" stroke-linejoin="round"/>
<path d="M6.71735 9C7.83193 9 8.73547 8.10457 8.73547 7C8.73547 5.89543 7.83193 5 6.71735 5C5.60276 5 4.69922 5.89543 4.69922 7C4.69922 8.10457 5.60276 9 6.71735 9Z" stroke="#424B5A" stroke-linecap="round" stroke-linejoin="round"/>
</svg>
