<svg width="15" height="15" viewBox="0 0 15 15" fill="none" xmlns="http://www.w3.org/2000/svg">
<path d="M15 7.5C15 11.6431 11.6431 15 7.5 15C6.72581 15 5.98185 14.8821 5.28024 14.6643C5.58569 14.1653 6.04234 13.3488 6.21169 12.6986C6.30242 12.3478 6.67742 10.9143 6.67742 10.9143C6.92238 11.38 7.63609 11.7762 8.39516 11.7762C10.6573 11.7762 12.2873 9.69556 12.2873 7.10988C12.2873 4.63306 10.2641 2.77923 7.66331 2.77923C4.42742 2.77923 2.70665 4.9506 2.70665 7.31855C2.70665 8.41935 3.29335 9.78931 4.22782 10.2248C4.36996 10.2913 4.44556 10.2611 4.47883 10.125C4.50302 10.0222 4.63004 9.51109 4.6875 9.2752C4.70565 9.1996 4.69657 9.13306 4.63609 9.06048C4.33065 8.68246 4.08266 7.99294 4.08266 7.34879C4.08266 5.69456 5.33468 4.09476 7.46976 4.09476C9.31149 4.09476 10.6028 5.3498 10.6028 7.14617C10.6028 9.1754 9.57762 10.5817 8.24395 10.5817C7.50907 10.5817 6.95564 9.97379 7.13407 9.22681C7.34577 8.33468 7.75403 7.37298 7.75403 6.72883C7.75403 6.15423 7.44556 5.67339 6.80444 5.67339C6.05141 5.67339 5.44657 6.4506 5.44657 7.49395C5.44657 8.15927 5.67036 8.60685 5.67036 8.60685C5.67036 8.60685 4.92944 11.746 4.79335 12.3327C4.64214 12.9798 4.70262 13.8931 4.76613 14.4859C1.97782 13.3942 0 10.6784 0 7.5C0 3.35685 3.35685 0 7.5 0C11.6431 0 15 3.35685 15 7.5Z" fill="#424B5A"/>
</svg>
