<svg width="17" height="19" viewBox="0 0 17 19" fill="none" xmlns="http://www.w3.org/2000/svg">
<path d="M13.5002 5.9999C14.8809 5.9999 16.0001 4.88063 16.0001 3.49995C16.0001 2.11927 14.8809 1 13.5002 1C12.1195 1 11.0002 2.11927 11.0002 3.49995C11.0002 4.88063 12.1195 5.9999 13.5002 5.9999Z" stroke="#A4A4A4" stroke-width="1.5" stroke-linecap="round" stroke-linejoin="round"/>
<path d="M3.49995 11.8329C4.88063 11.8329 5.9999 10.7136 5.9999 9.33296C5.9999 7.95227 4.88063 6.83301 3.49995 6.83301C2.11927 6.83301 1 7.95227 1 9.33296C1 10.7136 2.11927 11.8329 3.49995 11.8329Z" stroke="#A4A4A4" stroke-width="1.5" stroke-linecap="round" stroke-linejoin="round"/>
<path d="M13.5002 17.6659C14.8809 17.6659 16.0001 16.5466 16.0001 15.166C16.0001 13.7853 14.8809 12.666 13.5002 12.666C12.1195 12.666 11.0002 13.7853 11.0002 15.166C11.0002 16.5466 12.1195 17.6659 13.5002 17.6659Z" stroke="#A4A4A4" stroke-width="1.5" stroke-linecap="round" stroke-linejoin="round"/>
<path d="M5.6582 10.5918L11.3498 13.9084" stroke="#A4A4A4" stroke-width="1.5" stroke-linecap="round" stroke-linejoin="round"/>
<path d="M11.3414 4.75781L5.6582 8.07441" stroke="#A4A4A4" stroke-width="1.5" stroke-linecap="round" stroke-linejoin="round"/>
</svg>
