<svg width="106" height="106" viewBox="0 0 106 106" fill="none" xmlns="http://www.w3.org/2000/svg">
<circle cx="53" cy="53" r="52.75" fill="#F2F2F2" stroke="#E3E3E3" stroke-width="0.5"/>
<path d="M53.8383 52.8348C61.1212 52.8348 66.0675 46.9327 66.0675 39.6498C66.0675 32.3669 61.1212 26.4647 53.8383 26.4647C46.5554 26.4647 41.6016 32.3669 41.6016 39.6498C41.6091 46.9327 46.5554 52.8348 53.8383 52.8348Z" fill="#9F9F9F"/>
<path d="M63.7055 51.97C61.0958 54.3141 57.6744 55.7025 53.8281 55.7025C49.9818 55.7025 46.5604 54.3141 43.9431 51.97C37.7375 55.3687 33.4512 61.817 33.125 69.3123C38.3747 74.7138 45.7183 78.0822 53.8281 78.0822C61.9379 78.0822 69.2815 74.7138 74.5312 69.3123C74.205 61.817 69.9188 55.3687 63.7055 51.97Z" fill="#9F9F9F"/>
</svg>
