<svg width="22" height="22" viewBox="0 0 22 22" fill="none" xmlns="http://www.w3.org/2000/svg">
<rect width="22" height="22" rx="8" fill="#424B5A" fill-opacity="0.8"/>
<g clip-path="url(#clip0_211_4684)">
<path d="M15.5221 6.47831C15.2388 6.19548 14.8549 6.03662 14.4546 6.03662C14.0543 6.03662 13.6704 6.19548 13.3871 6.47831L6.61042 13.255C6.41636 13.448 6.26249 13.6775 6.15771 13.9303C6.05294 14.1831 5.99933 14.4542 6.00001 14.7279V15.5833C6.00001 15.6938 6.0439 15.7998 6.12205 15.8779C6.20019 15.9561 6.30617 16 6.41667 16H7.27209C7.54574 16.0008 7.81683 15.9472 8.06965 15.8425C8.32248 15.7378 8.55203 15.584 8.74501 15.39L15.5221 8.6129C15.8048 8.32965 15.9636 7.9458 15.9636 7.54561C15.9636 7.14541 15.8048 6.76157 15.5221 6.47831ZM8.15584 14.8008C7.92084 15.0343 7.60332 15.1657 7.27209 15.1666H6.83334V14.7279C6.83292 14.5637 6.86507 14.401 6.92794 14.2493C6.99081 14.0976 7.08314 13.9599 7.19959 13.8441L12.3425 8.70123L13.3008 9.65956L8.15584 14.8008ZM14.9325 8.02373L13.8883 9.06831L12.93 8.11206L13.9746 7.06748C14.0375 7.00469 14.1122 6.95491 14.1944 6.92098C14.2765 6.88706 14.3646 6.86964 14.4535 6.86974C14.5423 6.86984 14.6303 6.88744 14.7124 6.92155C14.7945 6.95566 14.8691 7.0056 14.9319 7.06852C14.9947 7.13145 15.0444 7.20612 15.0784 7.28829C15.1123 7.37045 15.1297 7.45849 15.1296 7.54738C15.1295 7.63628 15.1119 7.72428 15.0778 7.80637C15.0437 7.88846 14.9938 7.96303 14.9308 8.02581L14.9325 8.02373Z" fill="white"/>
</g>
<defs>
<clipPath id="clip0_211_4684">
<rect width="10" height="10" fill="white" transform="translate(6 6)"/>
</clipPath>
</defs>
</svg>
