<svg width="150" height="127" viewBox="0 0 150 127" fill="none" xmlns="http://www.w3.org/2000/svg">
<path d="M68.7499 125.833C121.233 131.145 148.282 118.234 149.897 87.1015C152.318 40.4024 111.527 45.4472 99.6484 33.1395C87.7688 20.8319 101.077 38.3226 78.1985 12.8181C62.9457 -4.18506 42.6216 -4.27237 17.2263 12.5568C-3.25783 29.2286 -5.47328 51.0927 10.5793 78.1484C26.6319 105.204 46.0219 121.099 68.7499 125.833Z" fill="#FFF3DB"/>
<mask id="mask0_211_4509" style="mask-type:luminance" maskUnits="userSpaceOnUse" x="43" y="9" width="84" height="24">
<path d="M126.314 9.0437H43.7176L43.6699 32.6615H126.266L126.314 9.0437Z" fill="white"/>
</mask>
<g mask="url(#mask0_211_4509)">
<path d="M44.8987 10.2417C55.4831 10.2417 56.8061 16.4978 56.8061 22.7426V29.5557C56.8061 30.6353 57.6271 31.5124 58.6372 31.5124L121.003 30.97C122.013 30.97 122.834 30.0935 122.834 29.0139V21.6689C122.834 14.969 117.752 9.53656 111.484 9.53656C111.059 9.53656 44.4555 10.2417 44.8987 10.2417Z" fill="#E5E5E5"/>
<path d="M44.8965 11.3868C44.8965 12.4082 45.7267 13.2371 46.7488 13.2371C111.497 13.2371 111.509 13.2364 111.521 13.2371C115.764 13.2443 119.202 16.7121 119.208 20.9928V29.7699H121.039C122.05 29.7699 122.87 28.943 122.87 27.9236V20.9928C122.897 14.6626 117.832 9.50936 111.558 9.48224H111.484H110.801C110.633 9.49216 110.47 9.51928 110.304 9.53714H46.7461C45.7247 9.53714 44.8965 10.3654 44.8965 11.3868Z" fill="#E5E5E5"/>
</g>
<mask id="mask1_211_4509" style="mask-type:luminance" maskUnits="userSpaceOnUse" x="18" y="7" width="102" height="112">
<path d="M119.977 7.854H18.3652V118.494H119.977V7.854Z" fill="white"/>
</mask>
<g mask="url(#mask1_211_4509)">
<path d="M111.484 13.0091V9.53613H45.5385C36.8976 9.54936 29.896 16.6098 29.8828 25.3221V115.969C29.8828 116.988 30.7031 117.815 31.7133 117.815H88.1765C96.8061 117.788 103.79 110.73 103.796 102.029V20.9792V20.8925C103.85 16.6475 107.275 13.021 111.484 13.0151C111.501 13.0151 111.517 13.0098 111.534 13.0091H111.484Z" fill="white"/>
<path d="M45.5007 9.53626C36.8592 9.55015 29.857 16.6106 29.8438 25.3229V78.3918L69.272 9.4873L45.5007 9.53626Z" fill="#EFEFEF"/>
<path d="M29.8816 46.7275V26.4927C29.8955 17.7797 36.897 10.7199 45.5386 10.7061H111.483M25.1953 115.305C29.1334 115.305 29.8458 111.121 29.8458 108.477C29.8458 86.8536 29.8816 71.5684 29.8816 66.085M30.2262 52.9094V55.3405" stroke="#E5E5E5" stroke-width="7.2" stroke-miterlimit="10" stroke-linecap="round"/>
<path d="M111.484 9.48145H110.8C104.815 9.84595 100.142 14.8438 100.134 20.8934V21.0661V101.983C100.123 107.497 96.4298 112.31 91.1416 113.703C90.5634 113.854 89.9714 113.928 89.38 113.934V113.936H89.3343H89.2873H20.834C23.582 116.362 27.1767 117.836 31.1148 117.839H31.1392H50.8759H88.1766C88.5788 117.839 89.2007 117.839 89.6042 117.778C90.3153 117.712 91.0205 117.593 91.7145 117.421C98.8034 115.756 103.824 109.387 103.833 102.045V20.9549V20.869C103.885 16.8899 106.908 13.5961 110.836 13.2363C111.053 13.2244 111.468 13.2257 111.684 13.2363L111.484 9.48145Z" fill="#E5E5E5"/>
</g>
<mask id="mask2_211_4509" style="mask-type:luminance" maskUnits="userSpaceOnUse" x="14" y="97" width="76" height="22">
<path d="M89.4393 97.3546H14.3984V118.164H89.4393V97.3546Z" fill="white"/>
</mask>
<g mask="url(#mask2_211_4509)">
<path d="M111.482 9.48157H110.799C104.814 9.84673 100.143 14.8439 100.135 20.8936V21.0662V101.983C100.123 107.497 96.43 112.311 91.1418 113.704C89.9411 114.017 88.6803 114.017 87.4802 113.704C82.1755 112.291 78.4835 107.444 78.498 101.91V99.4477C78.5053 98.4283 77.6916 97.5948 76.6808 97.5889H65.0783H55.7502H41.3693H26.3123H17.3129C16.3027 97.5889 15.4824 98.4164 15.4824 99.4358V102.046C15.4745 110.761 22.4748 117.832 31.1149 117.839H31.1381H50.8747H88.1748C88.5777 117.839 89.2002 117.839 89.6031 117.778C90.3149 117.712 91.0207 117.594 91.7147 117.421C98.8036 115.757 103.823 109.388 103.832 102.046V20.9557V20.8691C103.884 16.8907 106.908 13.5956 110.836 13.237C111.064 13.2245 111.291 13.2245 111.519 13.237C115.762 13.2437 119.2 16.712 119.208 20.9921V29.7699H121.038C122.049 29.7699 122.869 28.943 122.869 27.9236V20.9921C122.896 14.662 117.831 9.50935 111.556 9.48157H111.482Z" fill="#E5E5E5"/>
</g>
<mask id="mask3_211_4509" style="mask-type:luminance" maskUnits="userSpaceOnUse" x="31" y="11" width="74" height="104">
<path d="M104.528 11.9888C100.228 11.9888 44.6596 11.9888 44.6596 11.9888L34.9021 18.9348L31.2637 39.9382V97.6563C31.2637 97.6563 75.5859 97.6563 76.9089 97.6563C78.232 97.6563 78.3974 98.814 78.3974 99.6409C78.3974 100.468 79.2243 114.194 88.9818 114.194C98.7393 114.194 100.062 105.264 100.062 100.302C100.062 95.341 100.062 21.4155 100.062 19.7617C100.062 18.1079 102.047 13.1464 104.528 11.9888Z" fill="white"/>
</mask>
<g mask="url(#mask3_211_4509)">
<path d="M60.9648 86.5635C61.4167 85.6086 62.5564 85.2004 63.5121 85.6498L75.5854 91.3277C76.5381 91.7758 76.947 92.9114 76.4991 93.8644L76.4972 93.8685C76.0452 94.823 74.9058 95.232 73.9496 94.7823L61.8764 89.1048C60.9236 88.6564 60.5146 87.5208 60.9627 86.5681L60.9648 86.5635Z" fill="#D8D8D8"/>
<path d="M63.5201 87.7172C67.1722 80.7701 64.4695 72.1758 57.4876 68.5039C50.5028 64.8304 41.8752 67.4767 38.2252 74.418C34.5754 81.3591 37.2836 89.9703 44.2688 93.6429C51.2537 97.3153 59.8689 94.6622 63.5201 87.7172Z" fill="#D8D8D8"/>
<path d="M63.5201 87.7172C67.1722 80.7701 64.4695 72.1758 57.4876 68.5039C50.5028 64.8304 41.8752 67.4767 38.2252 74.418C34.5754 81.3591 37.2836 89.9703 44.2688 93.6429C51.2537 97.3153 59.8689 94.6622 63.5201 87.7172Z" stroke="#D8D8D8" stroke-width="4.36234" stroke-miterlimit="10"/>
</g>
<path d="M44.6309 81.4879H62.5284" stroke="#969696" stroke-width="7.2" stroke-miterlimit="10" stroke-linecap="round"/>
<path d="M44.6309 64.8174H62.5284" stroke="#969696" stroke-width="7.2" stroke-miterlimit="10" stroke-linecap="round"/>
<path d="M44.6309 48.1466H85.1989" stroke="#969696" stroke-width="7.2" stroke-miterlimit="10" stroke-linecap="round"/>
<path d="M44.6309 30.2854H89.8865" stroke="#969696" stroke-width="7.2" stroke-miterlimit="10" stroke-linecap="round"/>
<path d="M63.1934 79.8576C63.6452 78.9027 64.7849 78.4944 65.7406 78.9439L77.814 84.6218C78.7666 85.0698 79.1756 86.2055 78.7276 87.1585L78.7257 87.1626C78.2737 88.1171 77.1343 88.5261 76.1781 88.0764L64.1049 82.3989C63.1521 81.9505 62.7432 80.8148 63.1912 79.8622L63.1934 79.8576Z" fill="#969696"/>
<path d="M65.7486 81.0112C69.4007 74.0641 66.698 65.4698 59.7161 61.7979C52.7313 58.1245 44.1037 60.7707 40.4537 67.7121C36.8039 74.6531 39.5121 83.2644 46.4973 86.937C53.4822 90.6094 62.0974 87.9563 65.7486 81.0112Z" fill="white"/>
<path d="M65.7486 81.0112C69.4007 74.0641 66.698 65.4698 59.7161 61.7979C52.7313 58.1245 44.1037 60.7707 40.4537 67.7121C36.8039 74.6531 39.5121 83.2644 46.4973 86.937C53.4822 90.6094 62.0974 87.9563 65.7486 81.0112Z" stroke="#969696" stroke-width="4.36234" stroke-miterlimit="10"/>
</svg>
