<svg width="62" height="68" viewBox="0 0 62 68" fill="none" xmlns="http://www.w3.org/2000/svg">
<path d="M57.2234 13.5329C53.6328 13.0489 49.6317 10.3524 45.7555 7.74539C41.0944 4.60345 36.5661 1 31.0005 1C25.7149 1 20.906 4.60345 16.245 7.74539C12.3738 10.3524 8.37268 13.0489 4.77704 13.5329L1 14.0426L1.1148 17.8421C1.17588 19.3355 2.54709 54.5113 28.8568 66.1271C28.8568 66.1271 30.2391 66.6722 30.8907 66.6676H31.0997C31.7508 66.6722 33.133 66.1271 33.133 66.1271C59.4529 54.5113 60.8218 19.3355 60.8857 17.8421L61 14.0426L57.2234 13.5329Z" fill="white"/>
<path d="M57.2234 13.5329C53.6328 13.0489 49.6317 10.3524 45.7555 7.74539C41.0944 4.60345 36.5661 1 31.0005 1C25.7149 1 20.906 4.60345 16.245 7.74539C12.3738 10.3524 8.37268 13.0489 4.77704 13.5329L1 14.0426L1.1148 17.8421C1.17588 19.3355 2.54709 54.5113 28.8568 66.1271C28.8568 66.1271 30.2391 66.6722 30.8907 66.6676H31.0997C31.7508 66.6722 33.133 66.1271 33.133 66.1271C59.4529 54.5113 60.8218 19.3355 60.8857 17.8421L61 14.0426L57.2234 13.5329Z" stroke="#2C2C2C" stroke-width="2" stroke-linecap="round" stroke-linejoin="round"/>
<path d="M19.7893 13.9867C16.8458 15.9668 13.8058 18.0159 11.0757 18.3855L8.20703 18.7708L8.29336 21.6602C8.33928 22.7944 9.38124 49.5276 29.3763 58.3578L29.5063 58.4111C29.9412 58.648 30.4284 58.7702 30.923 58.7674H31.0814C31.576 58.7702 32.0637 58.648 32.4981 58.4111L32.628 58.3578C52.6231 49.5276 53.6656 22.7944 53.711 21.6602L53.7978 18.7708L50.9286 18.375C48.1991 18.0058 45.1586 15.9567 42.2155 13.9771C38.6731 11.5887 35.2327 8.86005 31.0024 8.86005C26.9861 8.86005 23.3317 11.5993 19.7893 13.9867Z" fill="#FFC268"/>
<path d="M44.8726 31.8785C44.8726 39.5409 38.6612 45.7523 30.9988 45.7523C23.3363 45.7523 17.125 39.5409 17.125 31.8785C17.125 24.216 23.3363 18.0047 30.9988 18.0047C38.6612 18.0047 44.8726 24.216 44.8726 31.8785Z" fill="#FF9901"/>
<path d="M27.9297 29.897V27.5524C27.9297 25.8688 29.2947 24.5043 30.9777 24.5043C32.6613 24.5043 34.0258 25.8688 34.0258 27.5524L34.0491 33.5634" stroke="white" stroke-width="4.72" stroke-linecap="round" stroke-linejoin="round"/>
<path d="M35.7933 39.9216H26.162C25.3801 39.9216 24.7461 39.2876 24.7461 38.5057V31.042C24.7461 30.26 25.3801 29.626 26.162 29.626H35.7933C36.5752 29.626 37.2092 30.26 37.2092 31.042V38.5057C37.2092 39.2876 36.5752 39.9216 35.7933 39.9216Z" fill="white"/>
<path d="M32.3324 34.774C32.3324 35.5223 31.7261 36.1287 30.9777 36.1287C30.2294 36.1287 29.623 35.5223 29.623 34.774C29.623 34.0257 30.2294 33.4193 30.9777 33.4193C31.7261 33.4193 32.3324 34.0257 32.3324 34.774Z" fill="#ABC2FF"/>
</svg>
