<svg width="17" height="17" viewBox="0 0 17 17" fill="none" xmlns="http://www.w3.org/2000/svg">
<path d="M6.4679 15.4397C6.85522 15.4397 7.1692 15.1257 7.1692 14.7384C7.1692 14.3511 6.85522 14.0371 6.4679 14.0371C6.08058 14.0371 5.7666 14.3511 5.7666 14.7384C5.7666 15.1257 6.08058 15.4397 6.4679 15.4397Z" stroke="#424B5A" stroke-width="1.3" stroke-linecap="round" stroke-linejoin="round"/>
<path d="M14.1818 15.4397C14.5691 15.4397 14.8831 15.1257 14.8831 14.7384C14.8831 14.3511 14.5691 14.0371 14.1818 14.0371C13.7945 14.0371 13.4805 14.3511 13.4805 14.7384C13.4805 15.1257 13.7945 15.4397 14.1818 15.4397Z" stroke="#424B5A" stroke-width="1.3" stroke-linecap="round" stroke-linejoin="round"/>
<path d="M0.857422 0.712891H3.66262L5.5421 10.1033C5.60623 10.4262 5.78188 10.7162 6.0383 10.9226C6.29472 11.129 6.61557 11.2387 6.94469 11.2324H13.7613C14.0904 11.2387 14.4113 11.129 14.6677 10.9226C14.9241 10.7162 15.0998 10.4262 15.1639 10.1033L16.286 4.21938H4.36392" stroke="#424B5A" stroke-width="1.3" stroke-linecap="round" stroke-linejoin="round"/>
</svg>
