<svg width="60" height="61" viewBox="0 0 60 61" fill="none" xmlns="http://www.w3.org/2000/svg">
<path fill-rule="evenodd" clip-rule="evenodd" d="M23.7467 0.643066C24.0111 0.871847 23.8953 1.30661 23.8953 1.59011C23.8946 9.4325 23.8632 16.9488 23.97 24.4902C24.2628 24.5495 24.4398 24.2128 24.6018 24.0357C27.3085 21.1011 30.1346 18.1839 32.86 15.1794C34.2574 13.6372 35.7212 12.035 37.2493 10.4464C38.3308 9.32077 39.4137 8.1381 40.5602 6.88779C40.8387 6.58528 41.4116 5.76669 41.6752 5.75225C42.1443 5.72716 42.517 6.68181 42.8665 6.85054C45.4506 9.59515 47.9512 12.4264 50.4913 15.2159C53.2771 18.0866 55.9217 21.1953 58.7486 24.0737C58.9159 24.2432 59.2206 24.415 59.1587 24.7167C51.5451 24.9189 43.5118 24.6916 35.837 24.8307C35.8437 25.267 36.2784 25.5254 36.5435 25.7762C38.5518 27.6764 40.5736 29.7043 42.6058 31.6447C44.9376 33.8687 47.2484 36.1352 49.4875 38.42C50.8341 39.6893 52.0642 40.9898 53.5049 42.3571C53.6901 42.532 54.0307 42.7547 54.0254 42.9629C54.018 43.2479 53.2666 43.7944 52.9836 44.0597C51.8401 45.139 50.8034 46.1841 49.71 47.2026C48.9617 47.8988 48.3537 48.7136 47.627 49.3984C43.9935 52.8202 40.2741 56.5271 36.7661 59.8448C36.3949 60.1762 36.0588 60.7386 35.5756 60.8291C35.3605 52.9897 35.6286 44.7681 35.4269 36.9819C34.9236 37.1127 34.6442 37.6645 34.2738 38.0422C33.8914 38.4314 33.5023 38.8228 33.158 39.215C28.0583 44.7392 22.9072 50.2094 17.7964 55.7199C17.3072 55.466 17.0032 54.9758 16.6432 54.5844C11.9596 49.4759 6.98175 44.4792 2.32129 39.291C1.96205 38.892 1.62447 38.4686 1.24282 38.0795C0.879094 37.7116 0.427239 37.343 0.238281 36.8307C8.16404 36.6452 15.6872 36.8117 23.5973 36.6794C23.6638 36.3724 23.3105 36.1983 23.1507 36.0364C20.3641 33.1991 17.3879 30.4757 14.558 27.5936C13.112 26.1206 11.5376 24.6232 9.94606 23.1266C8.7817 22.0337 7.65468 20.9589 6.44923 19.7953C6.16019 19.5163 5.37822 18.8908 5.37075 18.6225C5.3603 18.3109 6.23115 17.6146 6.44923 17.4109C6.88615 17.0043 7.3268 16.6509 7.60239 16.3142C13.0568 11.1769 18.2236 5.74845 23.7093 0.643066C23.7213 0.643066 23.734 0.643066 23.7467 0.643066ZM24.0066 24.8315C23.8087 25.7284 23.8946 26.7164 23.8953 27.7083C23.8953 30.6848 23.8639 33.893 23.9327 36.6422C24.799 36.7904 25.7505 36.7182 26.7222 36.7182C29.5461 36.7167 32.7061 36.7509 35.4254 36.6794C35.5517 33.0098 35.5472 28.5976 35.4254 24.8687C31.8778 24.7007 27.7245 24.8049 24.0066 24.8315Z" fill="#FFD685"/>
</svg>
