<svg width="48" height="54" viewBox="0 0 48 54" fill="none" xmlns="http://www.w3.org/2000/svg">
<path fill-rule="evenodd" clip-rule="evenodd" d="M5.85936 53.8989H42.1405C44.0192 53.8989 45.5419 52.3437 45.5419 50.425V24.9494C46.9183 23.8933 47.8095 22.212 47.8095 20.3175V15.6856C47.8095 15.5489 47.7857 15.4169 47.7437 15.2942L44.2494 4.59098C43.4784 2.22638 41.3118 0.631836 38.8718 0.631836C31.9784 0.631836 16.0215 0.631836 9.12807 0.631836C6.68816 0.631836 4.52149 2.22638 3.75052 4.59098L0.256188 15.2942C0.214238 15.4169 0.19043 15.5489 0.19043 15.6856V20.3175C0.19043 22.212 1.08159 23.8933 2.458 24.9494V50.425C2.458 52.3437 3.98068 53.8989 5.85936 53.8989ZM31.9365 51.583H42.1405C42.7664 51.583 43.2743 51.0642 43.2743 50.425V25.9916C42.9081 26.068 42.5283 26.1074 42.1405 26.1074C40.2857 26.1074 38.6394 25.1984 37.6054 23.7914C36.5714 25.1984 34.9251 26.1074 33.0703 26.1074C31.2154 26.1074 29.5691 25.1984 28.5351 23.7914C27.5011 25.1984 25.8548 26.1074 24 26.1074C22.1451 26.1074 20.4988 25.1984 19.4648 23.7914C18.4308 25.1984 16.7845 26.1074 14.9297 26.1074C13.0748 26.1074 11.4285 25.1984 10.3945 23.7914C9.3605 25.1984 7.71424 26.1074 5.85936 26.1074C5.47161 26.1074 5.09179 26.068 4.72558 25.9916V50.425C4.72558 51.0642 5.23351 51.583 5.85936 51.583H16.0634V36.5292C16.0634 34.6104 17.5861 33.0553 19.4648 33.0553H28.5351C30.4138 33.0553 31.9365 34.6104 31.9365 36.5292V51.583ZM29.6689 51.583H18.331V36.5292C18.331 35.89 18.839 35.3712 19.4648 35.3712H28.5351C29.161 35.3712 29.6689 35.89 29.6689 36.5292V51.583ZM5.85936 23.7914C7.73805 23.7914 9.26073 22.2363 9.26073 20.3175V16.8436H2.458V20.3175C2.458 22.2363 3.98068 23.7914 5.85936 23.7914ZM14.9297 23.7914C16.8083 23.7914 18.331 22.2363 18.331 20.3175V16.8436H11.5283V20.3175C11.5283 22.2363 13.051 23.7914 14.9297 23.7914ZM33.0703 23.7914C34.9489 23.7914 36.4716 22.2363 36.4716 20.3175V16.8436H29.6689V20.3175C29.6689 22.2363 31.1916 23.7914 33.0703 23.7914ZM24 23.7914C25.8786 23.7914 27.4013 22.2363 27.4013 20.3175V16.8436H20.5986V20.3175C20.5986 22.2363 22.1213 23.7914 24 23.7914ZM42.1405 23.7914C44.0192 23.7914 45.5419 22.2363 45.5419 20.3175V16.8436H38.7392V20.3175C38.7392 22.2363 40.2619 23.7914 42.1405 23.7914ZM42.0986 5.32281L45.1031 14.5276H2.89677L5.90132 5.32281C6.3639 3.90428 7.66435 2.9478 9.12807 2.9478H38.8718C40.3356 2.9478 41.636 3.90428 42.0986 5.32281Z" fill="#FFD685"/>
</svg>
