<svg width="52" height="55" viewBox="0 0 52 55" fill="none" xmlns="http://www.w3.org/2000/svg">
<path d="M21.6835 54.3675H50.1369C50.3656 54.3675 50.5849 54.2747 50.7466 54.1095C50.9083 53.9444 50.9992 53.7204 50.9992 53.4869V1.51246C50.9992 1.2789 50.9083 1.05491 50.7466 0.889765C50.5849 0.724616 50.3656 0.631836 50.1369 0.631836H31.7026C31.4739 0.631836 31.2546 0.724616 31.0929 0.889765C30.9312 1.05491 30.8403 1.2789 30.8403 1.51246V29.2081H21.6835C21.4548 29.2081 21.2355 29.3008 21.0738 29.466C20.9121 29.6311 20.8213 29.8551 20.8213 30.0887V53.5221C20.8302 53.7495 20.925 53.9645 21.0857 54.1221C21.2464 54.2797 21.4607 54.3677 21.6835 54.3675ZM31.4956 52.6679H28.2537V48.934H31.5043L31.4956 52.6679ZM32.5648 2.35786H49.2661V52.6679H39.7816V30.0623C39.7816 29.8287 39.6908 29.6047 39.5291 29.4396C39.3674 29.2744 39.1481 29.1816 38.9194 29.1816H32.5648V2.35786ZM22.5199 30.9077H38.1175V52.6679H35.962V51.118C35.9152 50.9276 35.8076 50.7586 35.656 50.6378C35.5045 50.517 35.3178 50.4514 35.1256 50.4514C34.9334 50.4514 34.7467 50.517 34.5952 50.6378C34.4436 50.7586 34.336 50.9276 34.2892 51.118V52.6679H33.1684V48.0886C33.1684 47.8551 33.0775 47.6311 32.9158 47.4659C32.7541 47.3008 32.5348 47.208 32.3061 47.208H27.3914C27.1628 47.208 26.9435 47.3008 26.7818 47.4659C26.6201 47.6311 26.5292 47.8551 26.5292 48.0886V52.6679H25.3997V51.118C25.4345 50.9874 25.4393 50.8503 25.4138 50.7175C25.3883 50.5847 25.3331 50.4597 25.2526 50.3522C25.1722 50.2447 25.0685 50.1575 24.9497 50.0976C24.8309 50.0376 24.7002 50.0064 24.5677 50.0064C24.4351 50.0064 24.3044 50.0376 24.1856 50.0976C24.0668 50.1575 23.9632 50.2447 23.8827 50.3522C23.8022 50.4597 23.7471 50.5847 23.7216 50.7175C23.696 50.8503 23.7009 50.9874 23.7356 51.118V52.6679H22.5199V30.9077Z" fill="#FFD685" stroke="#FFD685" stroke-width="0.3"/>
<path d="M30.3146 45.3853C30.5432 45.3853 30.7626 45.2926 30.9243 45.1274C31.0859 44.9623 31.1768 44.7383 31.1768 44.5047V33.7083C31.1272 33.5217 31.0188 33.357 30.8684 33.2396C30.718 33.1222 30.534 33.0586 30.3447 33.0586C30.1555 33.0586 29.9714 33.1222 29.8211 33.2396C29.6707 33.357 29.5623 33.5217 29.5127 33.7083V44.5311C29.5186 44.7498 29.604 44.9584 29.7522 45.1163C29.9004 45.2742 30.1009 45.3701 30.3146 45.3853Z" fill="#FFD685" stroke="#FFD685" stroke-width="0.3"/>
<path d="M25.8398 43.7647C26.0685 43.7647 26.2878 43.672 26.4495 43.5068C26.6112 43.3417 26.7021 43.1177 26.7021 42.8841V35.4693C26.6553 35.2789 26.5477 35.1099 26.3961 34.9891C26.2446 34.8683 26.0579 34.8027 25.8657 34.8027C25.6735 34.8027 25.4868 34.8683 25.3353 34.9891C25.1838 35.1099 25.0761 35.2789 25.0294 35.4693V42.8753C25.0267 43.1015 25.1095 43.3201 25.2604 43.4857C25.4113 43.6513 25.6188 43.7512 25.8398 43.7647Z" fill="#FFD685" stroke="#FFD685" stroke-width="0.3"/>
<path d="M34.7988 43.7647C35.0275 43.7647 35.2468 43.672 35.4085 43.5068C35.5702 43.3417 35.6611 43.1177 35.6611 42.8841V35.4693C35.6143 35.2789 35.5067 35.1099 35.3551 34.9891C35.2036 34.8683 35.0169 34.8027 34.8247 34.8027C34.6325 34.8027 34.4458 34.8683 34.2943 34.9891C34.1427 35.1099 34.0351 35.2789 33.9883 35.4693V42.8753C33.9857 43.1015 34.0684 43.3201 34.2193 43.4857C34.3702 43.6513 34.5777 43.7512 34.7988 43.7647Z" fill="#FFD685" stroke="#FFD685" stroke-width="0.3"/>
<path d="M43.3778 10.5126H46.5336C46.7623 10.5126 46.9816 10.4199 47.1433 10.2547C47.305 10.0896 47.3958 9.86558 47.3958 9.63203V6.40894C47.3958 6.17539 47.305 5.9514 47.1433 5.78625C46.9816 5.6211 46.7623 5.52832 46.5336 5.52832H43.3778C43.1492 5.52832 42.9299 5.6211 42.7682 5.78625C42.6065 5.9514 42.5156 6.17539 42.5156 6.40894V9.63203C42.5156 9.86558 42.6065 10.0896 42.7682 10.2547C42.9299 10.4199 43.1492 10.5126 43.3778 10.5126ZM44.2401 7.28957H45.7231V8.80424H44.2142L44.2401 7.28957Z" fill="#FFD685" stroke="#FFD685" stroke-width="0.3"/>
<path d="M43.3778 18.3588H46.5336C46.7623 18.3588 46.9816 18.266 47.1433 18.1009C47.305 17.9357 47.3958 17.7117 47.3958 17.4782V14.2815C47.3958 14.0479 47.305 13.824 47.1433 13.6588C46.9816 13.4937 46.7623 13.4009 46.5336 13.4009H43.3778C43.1492 13.4009 42.9299 13.4937 42.7682 13.6588C42.6065 13.824 42.5156 14.0479 42.5156 14.2815V17.5134C42.5245 17.7408 42.6193 17.9558 42.78 18.1134C42.9408 18.271 43.155 18.359 43.3778 18.3588ZM44.2401 15.1357H45.7231V16.6592H44.2142L44.2401 15.1357Z" fill="#FFD685" stroke="#FFD685" stroke-width="0.3"/>
<path d="M43.3778 26.4169H46.5336C46.7623 26.4169 46.9816 26.3241 47.1433 26.159C47.305 25.9938 47.3958 25.7698 47.3958 25.5363V22.3396C47.3958 22.1061 47.305 21.8821 47.1433 21.7169C46.9816 21.5518 46.7623 21.459 46.5336 21.459H43.3778C43.1492 21.459 42.9299 21.5518 42.7682 21.7169C42.6065 21.8821 42.5156 22.1061 42.5156 22.3396V25.5627C42.5224 25.7916 42.6162 26.0089 42.7771 26.1684C42.9381 26.3279 43.1536 26.417 43.3778 26.4169ZM44.2401 23.185H45.7231V24.7085H44.2142L44.2401 23.185Z" fill="#FFD685" stroke="#FFD685" stroke-width="0.3"/>
<path d="M43.3778 34.307H46.5336C46.7623 34.307 46.9816 34.2143 47.1433 34.0491C47.305 33.884 47.3958 33.66 47.3958 33.4264V30.2297C47.3958 29.9962 47.305 29.7722 47.1433 29.607C46.9816 29.4419 46.7623 29.3491 46.5336 29.3491H43.3778C43.1492 29.3491 42.9299 29.4419 42.7682 29.607C42.6065 29.7722 42.5156 29.9962 42.5156 30.2297V33.4528C42.5224 33.6818 42.6162 33.899 42.7771 34.0585C42.9381 34.218 43.1536 34.3071 43.3778 34.307ZM44.2401 31.0751H45.7231V32.5986H44.2142L44.2401 31.0751Z" fill="#FFD685" stroke="#FFD685" stroke-width="0.3"/>
<path d="M43.3778 42.3559H46.5336C46.7623 42.3559 46.9816 42.2631 47.1433 42.0979C47.305 41.9328 47.3958 41.7088 47.3958 41.4752V38.2786C47.3958 38.045 47.305 37.821 47.1433 37.6559C46.9816 37.4907 46.7623 37.3979 46.5336 37.3979H43.3778C43.1492 37.3979 42.9299 37.4907 42.7682 37.6559C42.6065 37.821 42.5156 38.045 42.5156 38.2786V41.5017C42.5224 41.7306 42.6162 41.9479 42.7771 42.1073C42.9381 42.2668 43.1536 42.356 43.3778 42.3559ZM44.2401 39.1328H45.7231V40.6475H44.2142L44.2401 39.1328Z" fill="#FFD685" stroke="#FFD685" stroke-width="0.3"/>
<path d="M43.3778 50.4399H46.5336C46.7623 50.4399 46.9816 50.3471 47.1433 50.182C47.305 50.0168 47.3958 49.7928 47.3958 49.5593V46.3274C47.3958 46.0938 47.305 45.8699 47.1433 45.7047C46.9816 45.5396 46.7623 45.4468 46.5336 45.4468H43.3778C43.1492 45.4468 42.9299 45.5396 42.7682 45.7047C42.6065 45.8699 42.5156 46.0938 42.5156 46.3274V49.5593C42.5156 49.7928 42.6065 50.0168 42.7682 50.182C42.9299 50.3471 43.1492 50.4399 43.3778 50.4399ZM44.2401 47.2168H45.7231V48.6787H44.2142L44.2401 47.2168Z" fill="#FFD685" stroke="#FFD685" stroke-width="0.3"/>
<path d="M35.79 10.5126H38.9543C39.183 10.5126 39.4023 10.4199 39.564 10.2547C39.7257 10.0896 39.8165 9.86558 39.8165 9.63203V6.40894C39.8165 6.17539 39.7257 5.9514 39.564 5.78625C39.4023 5.6211 39.183 5.52832 38.9543 5.52832H35.79C35.5613 5.52832 35.342 5.6211 35.1803 5.78625C35.0186 5.9514 34.9277 6.17539 34.9277 6.40894V9.63203C34.9277 9.86558 35.0186 10.0896 35.1803 10.2547C35.342 10.4199 35.5613 10.5126 35.79 10.5126ZM36.6522 7.28957H38.1438V8.80424H36.6263L36.6522 7.28957Z" fill="#FFD685" stroke="#FFD685" stroke-width="0.3"/>
<path d="M38.9973 13.4536H35.8329C35.6043 13.4536 35.3849 13.5464 35.2232 13.7115C35.0615 13.8767 34.9707 14.1007 34.9707 14.3342V17.5661C34.9707 17.7997 35.0615 18.0237 35.2232 18.1888C35.3849 18.354 35.6043 18.4467 35.8329 18.4467H38.9973C39.226 18.4467 39.4453 18.354 39.607 18.1888C39.7687 18.0237 39.8595 17.7997 39.8595 17.5661V14.2814C39.8463 14.0571 39.7497 13.8465 39.5894 13.6926C39.4291 13.5387 39.2173 13.4532 38.9973 13.4536ZM38.1351 16.6767H36.6693V15.1356H38.1609L38.1351 16.6767Z" fill="#FFD685" stroke="#FFD685" stroke-width="0.3"/>
<path d="M39.825 25.5627V22.3396C39.825 22.1061 39.7342 21.8821 39.5725 21.7169C39.4108 21.5518 39.1915 21.459 38.9628 21.459H35.8329C35.6043 21.459 35.3849 21.5518 35.2232 21.7169C35.0615 21.8821 34.9707 22.1061 34.9707 22.3396V25.5627C34.9707 25.7962 35.0615 26.0202 35.2232 26.1854C35.3849 26.3505 35.6043 26.4433 35.8329 26.4433H38.9973C39.2199 26.4342 39.4305 26.3374 39.5848 26.1733C39.7391 26.0091 39.8252 25.7903 39.825 25.5627ZM38.1609 24.6821H36.6693V23.185H38.1609V24.6821Z" fill="#FFD685" stroke="#FFD685" stroke-width="0.3"/>
<path d="M5.73242 5.7834C5.73242 10.9615 9.37101 13.7883 11.242 13.7883C13.1131 13.7883 16.7603 11.0407 16.7603 5.7834C16.7603 2.47225 13.9149 0.675781 11.242 0.675781C8.56914 0.675781 5.73242 2.27852 5.73242 5.7834ZM15.2169 5.7834C15.2169 10.0544 12.406 12.256 11.1989 12.256C10.2677 12.256 7.18958 10.2394 7.18958 5.7834C7.18958 2.9654 9.7159 2.2609 11.1989 2.2609C12.8544 2.21687 15.26 3.16795 15.26 5.7834H15.2169Z" fill="#FFD685" stroke="#FFD685" stroke-width="0.3"/>
<path d="M21.1753 25.1573C21.2044 25.1861 21.2399 25.2072 21.2788 25.2189C21.3739 25.2613 21.4768 25.2823 21.5805 25.2806H25.7623C25.945 25.2299 26.1062 25.1192 26.2212 24.9656C26.3362 24.812 26.3984 24.6241 26.3984 24.4308C26.3984 24.2374 26.3362 24.0495 26.2212 23.8959C26.1062 23.7423 25.945 23.6317 25.7623 23.581H21.8823L17.9075 20.1641C17.7829 20.0706 17.636 20.0131 17.4822 19.9975C17.3283 19.9818 17.1732 20.0088 17.0331 20.0754C16.8929 20.142 16.7729 20.2459 16.6855 20.3761C16.5982 20.5064 16.5467 20.6583 16.5365 20.8158V28.5125H6.34503V22.3481C6.2983 22.1577 6.19062 21.9887 6.03909 21.8679C5.88756 21.7471 5.70087 21.6815 5.50867 21.6815C5.31647 21.6815 5.12977 21.7471 4.97824 21.8679C4.82671 21.9887 4.71904 22.1577 4.67231 22.3481V30.1856H2.08564V17.8569C2.08563 17.424 2.25341 17.0087 2.55231 16.7018C2.8512 16.3949 3.25691 16.2213 3.68075 16.2189H6.82787C7.22131 17.1005 7.86675 17.8398 8.67931 18.3396C9.49187 18.8394 10.4335 19.0764 11.3804 19.0193C12.2336 19.0402 13.0708 18.78 13.768 18.2772C14.4652 17.7745 14.9855 17.0559 15.2518 16.2278H17.2349C17.3556 16.2278 17.6833 16.6152 17.7695 16.6857L19.1146 17.8569L22.0461 20.3667C22.3738 20.6485 22.7273 21.0888 23.1929 21.0888H25.7796C25.9622 21.0381 26.1235 20.9274 26.2384 20.7738C26.3534 20.6203 26.4157 20.4323 26.4157 20.239C26.4157 20.0457 26.3534 19.8577 26.2384 19.7041C26.1235 19.5506 25.9622 19.4399 25.7796 19.3892H23.4947L18.58 15.1974C18.3076 14.9411 17.9834 14.749 17.6302 14.6349C17.2771 14.5208 16.9037 14.4873 16.5365 14.537H14.5965C14.3911 14.5339 14.1914 14.6059 14.0333 14.7399C13.8752 14.8739 13.7692 15.0611 13.7343 15.2679C13.6515 15.859 13.3571 16.3977 12.908 16.7799C12.4589 17.1622 11.887 17.3608 11.3028 17.3373C10.0009 17.3373 8.51783 16.6505 8.25054 15.2503C8.10397 14.4929 8.10397 14.4929 3.62902 14.5634C2.77655 14.5725 1.96153 14.9225 1.35872 15.5382C0.755899 16.1538 0.413271 16.9863 0.404297 17.8569V32.2815C0.404297 33.1644 0.747677 34.011 1.3589 34.6353C1.66154 34.9444 2.02084 35.1896 2.41626 35.3569C2.81169 35.5242 3.2355 35.6103 3.66351 35.6103H4.69818V53.575C4.69818 53.8086 4.78902 54.0325 4.95072 54.1977C5.11242 54.3628 5.33173 54.4556 5.5604 54.4556H17.4246C17.6533 54.4556 17.8726 54.3628 18.0343 54.1977C18.196 54.0325 18.2868 53.8086 18.2868 53.575V22.6475L21.0977 25.0868L21.1753 25.1573ZM3.66351 33.9107C3.24046 33.9107 2.83473 33.739 2.53559 33.4335C2.23645 33.128 2.06839 32.7136 2.06839 32.2815V31.8588H4.69818V33.9107H3.66351ZM12.2858 52.7296V35.4694C12.239 35.279 12.1314 35.11 11.9798 34.9892C11.8283 34.8684 11.6416 34.8028 11.4494 34.8028C11.2572 34.8028 11.0705 34.8684 10.919 34.9892C10.7674 35.11 10.6598 35.279 10.613 35.4694V52.7296H6.37089V34.9146C6.37505 34.8648 6.37505 34.8147 6.37089 34.7649V30.2385H16.5365V52.756L12.2858 52.7296Z" fill="#FFD685" stroke="#FFD685" stroke-width="0.3"/>
</svg>
