<svg width="63" height="50" viewBox="0 0 63 50" fill="none" xmlns="http://www.w3.org/2000/svg">
<path d="M62.7081 35.7252L58.4934 31.5105C58.3067 31.3237 58.0534 31.2187 57.7892 31.2186H51.4248V30.4619C51.4248 30.1977 51.3199 29.9443 51.133 29.7575C50.9462 29.5707 50.6929 29.4658 50.4287 29.4658H45.031C47.6168 23.9131 48.9594 17.8628 48.965 11.7376V8.22848C48.9649 8.05372 48.9189 7.88205 48.8315 7.73068C48.7442 7.57932 48.6186 7.45358 48.4673 7.36608L45.4293 5.60908C39.0596 1.93442 31.8354 0 24.4818 0C17.1282 0 9.90396 1.93442 3.5343 5.60908L0.496301 7.36608C0.345332 7.45381 0.220038 7.57964 0.132944 7.73098C0.0458505 7.88232 8.59137e-06 8.05387 1.38065e-06 8.22848V11.7376C-0.00188636 19.0898 1.93206 26.313 5.60737 32.6807C9.28267 39.0484 14.5698 44.3362 20.937 48.0123L23.9841 49.7749C24.1357 49.8625 24.3077 49.9086 24.4829 49.9086C24.658 49.9086 24.83 49.8625 24.9816 49.7749L28.028 48.0123C28.525 47.7246 29.0199 47.4222 29.5071 47.1135H32.5542C32.7726 47.9162 33.2491 48.6247 33.91 49.1299C34.571 49.635 35.3798 49.9087 36.2117 49.9087C37.0436 49.9087 37.8524 49.635 38.5134 49.1299C39.1743 48.6247 39.6508 47.9162 39.8692 47.1135H50.2642C50.2922 47.1135 50.3195 47.1135 50.3468 47.1093C50.3741 47.1051 50.4014 47.1135 50.4287 47.1135H52.5588C52.7772 47.9167 53.2538 48.6257 53.9152 49.131C54.5766 49.6363 55.386 49.9099 56.2183 49.9095C57.0507 49.9091 57.8598 49.6348 58.5207 49.1288C59.1816 48.6228 59.6576 47.9134 59.8752 47.11C60.7146 47.0766 61.5085 46.7198 62.0909 46.1145C62.6733 45.5091 62.999 44.702 63 43.862V36.4294C62.9999 36.1652 62.8949 35.9119 62.7081 35.7252ZM59.5994 35.4333H51.4248V33.2143H57.3748L59.5994 35.4333ZM49.4368 32.1384C49.4368 32.1636 49.4326 32.1888 49.4326 32.2147V45.1213H39.8692C39.6508 44.3186 39.1743 43.61 38.5134 43.1049C37.8524 42.5997 37.0436 42.3261 36.2117 42.3261C35.3798 42.3261 34.571 42.5997 33.91 43.1049C33.2491 43.61 32.7726 44.3186 32.5542 45.1213H29.6303V31.458H49.4326V32.0621C49.4326 32.0873 49.4347 32.1132 49.4368 32.1384ZM28.6342 29.4658C28.37 29.4658 28.1167 29.5707 27.9299 29.7575C27.743 29.9443 27.6381 30.1977 27.6381 30.4619V38.5763C26.6275 39.3518 25.5739 40.0697 24.4825 40.7267C19.5704 37.7629 15.4897 33.6024 12.6216 28.6339C9.75343 23.6654 8.19144 18.051 8.0815 12.3151C13.1009 9.53507 18.7446 8.07657 24.4825 8.07657C30.2204 8.07657 35.8641 9.53507 40.8835 12.3151C40.787 18.3787 39.0555 24.3038 35.8715 29.4651L28.6342 29.4658ZM24.4825 47.7617L21.9345 46.2917C15.8799 42.778 10.8524 37.7383 7.3532 31.6753C3.85405 25.6123 2.0056 18.7379 1.9922 11.7376V8.80318L4.5325 7.33318C10.599 3.8341 17.4792 1.99214 24.4825 1.99214C31.4858 1.99214 38.366 3.8341 44.4325 7.33318L46.9735 8.80318V11.7376C46.9684 17.8871 45.5483 23.953 42.8232 29.4658H38.1878C41.2681 24.0656 42.8848 17.9545 42.8778 11.7376C42.8778 11.563 42.8319 11.3914 42.7447 11.2402C42.6574 11.0889 42.5319 10.9633 42.3808 10.8759C36.9372 7.73679 30.7639 6.08436 24.4801 6.08436C18.1962 6.08436 12.0229 7.73679 6.5793 10.8759C6.42798 10.9632 6.30232 11.0887 6.21495 11.24C6.12758 11.3913 6.08159 11.5629 6.0816 11.7376C6.07891 18.0231 7.73187 24.1985 10.8741 29.6423C14.0164 35.086 18.5371 39.6061 23.9813 42.7476C24.1329 42.8352 24.3049 42.8813 24.4801 42.8813C24.6552 42.8813 24.8272 42.8352 24.9788 42.7476C25.8853 42.2233 26.7736 41.6556 27.6353 41.0501V45.9291C27.433 46.0509 27.2307 46.1727 27.0277 46.2903L24.4825 47.7617ZM36.2117 47.9164C35.8557 47.9165 35.5076 47.8111 35.2116 47.6134C34.9155 47.4157 34.6847 47.1346 34.5484 46.8057C34.4121 46.4768 34.3764 46.1149 34.4458 45.7657C34.5153 45.4166 34.6867 45.0958 34.9384 44.8441C35.1902 44.5924 35.5109 44.4209 35.8601 44.3515C36.2092 44.2821 36.5712 44.3178 36.9 44.4541C37.2289 44.5904 37.51 44.8212 37.7077 45.1173C37.9054 45.4133 38.0108 45.7614 38.0107 46.1174C38.0094 46.5939 37.8194 47.0505 37.4822 47.3873C37.1451 47.7241 36.6882 47.9135 36.2117 47.9143V47.9164ZM56.2163 47.9164C55.8603 47.9164 55.5123 47.8108 55.2164 47.613C54.9204 47.4152 54.6897 47.1341 54.5535 46.8052C54.4173 46.4763 54.3817 46.1144 54.4512 45.7653C54.5207 45.4162 54.6922 45.0955 54.944 44.8438C55.1957 44.5922 55.5165 44.4208 55.8656 44.3515C56.2148 44.2821 56.5767 44.3179 56.9055 44.4542C57.2343 44.5905 57.5154 44.8213 57.713 45.1173C57.9107 45.4134 58.0161 45.7614 58.016 46.1174C58.0149 46.5941 57.8248 47.0509 57.4875 47.3877C57.1501 47.7246 56.693 47.9139 56.2163 47.9143V47.9164ZM59.8724 45.1164C59.6528 44.3145 59.1757 43.607 58.5145 43.1029C57.8532 42.5988 57.0446 42.3262 56.2132 42.3269C55.3818 42.3276 54.5736 42.6017 53.9133 43.1069C53.2529 43.6121 52.777 44.3204 52.5588 45.1227H51.4248V37.4255H61.0078V43.862C61.0074 44.1743 60.891 44.4754 60.6813 44.7068C60.4715 44.9382 60.1832 45.0834 59.8724 45.1143V45.1164ZM35.84 18.6683L22.8046 31.7037C22.7122 31.7962 22.6024 31.8696 22.4816 31.9197C22.3607 31.9698 22.2312 31.9956 22.1004 31.9956C21.9696 31.9956 21.8401 31.9698 21.7193 31.9197C21.5984 31.8696 21.4886 31.7962 21.3962 31.7037L13.125 23.4332C12.9382 23.2463 12.8333 22.9929 12.8334 22.7287C12.8335 22.4645 12.9385 22.2112 13.1254 22.0244C13.3122 21.8377 13.5656 21.7328 13.8298 21.7328C14.094 21.7329 14.3473 21.8379 14.5341 22.0248L22.1004 29.5911L34.4316 17.2599C34.6196 17.0794 34.8709 16.9798 35.1316 16.9825C35.3922 16.9852 35.6414 17.0899 35.8257 17.2742C36.01 17.4585 36.1147 17.7077 36.1174 17.9683C36.12 18.2289 36.0205 18.4802 35.84 18.6683Z" fill="#424B5A"/>
</svg>
