<svg width="51" height="48" viewBox="0 0 51 48" fill="none" xmlns="http://www.w3.org/2000/svg">
<path d="M32.0045 0.000815084C31.5916 -0.0060061 31.178 0.0741916 30.7367 0.168551C30.0308 0.319754 29.2757 0.555218 28.5211 0.802879C27.7664 1.05003 27.0227 1.30592 26.3915 1.49616C25.7603 1.68641 25.2052 1.79967 25.0279 1.80013C24.8503 1.80005 24.3059 1.69043 23.6743 1.50133C23.0427 1.31209 22.2913 1.05585 21.5362 0.809853C20.7811 0.563998 20.0184 0.320667 19.3122 0.170413C18.606 0.0199893 17.978 -0.092073 17.3054 0.126757C16.6327 0.345425 16.1881 0.815368 15.706 1.35184C15.2239 1.88832 14.74 2.52659 14.275 3.16955C13.8099 3.81253 13.3623 4.45954 12.9635 4.98389C12.5647 5.50818 12.1792 5.91312 12.0357 6.01754C11.8911 6.11934 11.3881 6.3697 10.7647 6.58482C10.1414 6.80021 9.38568 7.02218 8.62984 7.26607C7.87423 7.51046 7.12097 7.77004 6.46141 8.06328C5.80172 8.35617 5.23127 8.63632 4.81653 9.20949C4.40111 9.7811 4.31132 10.4175 4.23739 11.1346C4.16343 11.8517 4.1543 12.6425 4.15658 13.4356C4.1588 14.2288 4.17287 15.0181 4.15828 15.6763C4.14524 16.3346 4.0765 16.8957 4.02176 17.0643C3.96702 17.2327 3.69659 17.711 3.32141 18.2526C2.94606 18.7938 2.46746 19.4309 1.99981 20.072C1.53213 20.713 1.06979 21.3611 0.70852 21.9853C0.347217 22.6094 0.0463219 23.1822 0.0468758 23.8886C0.0474622 24.595 0.349563 25.1599 0.711909 25.7834C1.07422 26.407 1.53451 27.0514 2.0032 27.6918C2.47189 28.3321 2.9486 28.962 3.32483 29.5027C3.70105 30.0435 3.97357 30.5293 4.0285 30.6977C4.08324 30.8665 4.15818 31.4242 4.17317 32.0824C4.18946 32.7406 4.17408 33.5299 4.17317 34.323C4.17222 35.1161 4.17643 35.9088 4.25234 36.6258C4.32728 37.3427 4.4133 37.9764 4.82976 38.5475C5.24606 39.1186 5.82961 39.4037 6.48975 39.6955C7.15 39.9874 7.90206 40.2397 8.65816 40.4826C9.41426 40.7255 10.1737 40.9576 10.7963 41.1742C11.4191 41.391 11.9238 41.624 12.0674 41.728C12.2111 41.8323 12.5937 42.2399 12.9933 42.7636C13.393 43.2873 13.8488 43.9307 14.3149 44.5729C14.781 45.2151 15.258 45.863 15.7409 46.3989C16.2237 46.935 16.669 47.3913 17.342 47.609C18.0149 47.8266 18.6513 47.7135 19.3572 47.562C20.0632 47.4108 20.8199 47.1753 21.5744 46.9276C22.3292 46.6805 23.0712 46.4247 23.7024 46.2344C24.3337 46.0442 24.8906 45.9313 25.0679 45.9309C25.2455 45.931 25.7883 46.0407 26.4198 46.2296C27.0514 46.4189 27.8028 46.6751 28.5579 46.9211C29.313 47.167 30.0724 47.4002 30.7785 47.5505C31.4847 47.7009 32.1127 47.813 32.7853 47.5942C33.458 47.3755 33.9079 46.9176 34.3897 46.3806C34.8716 45.8436 35.3506 45.1941 35.8157 44.5512C36.2808 43.9082 36.7318 43.273 37.1306 42.7486C37.5293 42.2243 37.9113 41.8072 38.0548 41.703C38.1995 41.6011 38.7074 41.3623 39.3307 41.1469C39.9541 40.9315 40.7031 40.6982 41.4588 40.4538C42.2144 40.2094 42.9677 39.9516 43.6272 39.6584C44.2869 39.3655 44.8631 39.0953 45.2771 38.5205C45.6926 37.9489 45.7824 37.3126 45.8563 36.5954C45.9303 35.8783 45.9345 35.0775 45.9322 34.2843C45.93 33.4912 45.9192 32.7019 45.9322 32.0437C45.9452 31.3855 46.0173 30.8343 46.072 30.6657C46.1267 30.4973 46.3936 30.0087 46.769 29.4674C47.1443 28.9261 47.6263 28.3009 48.0939 27.6597C48.5616 27.0187 49.0189 26.3588 49.3802 25.7347C49.7415 25.1105 50.0475 24.5495 50.0469 23.8431C50.0463 23.1367 49.7442 22.5701 49.3818 21.9466C49.0195 21.323 48.5542 20.6685 48.0855 20.0282C47.6168 19.3879 47.1418 18.7596 46.7656 18.2189C46.3893 17.6782 46.1151 17.1907 46.0602 17.0223C46.0055 16.854 45.937 16.3059 45.9221 15.6476C45.9058 14.9894 45.9194 14.2001 45.9204 13.407C45.9213 12.6139 45.9139 11.8112 45.838 11.0942C45.763 10.3772 45.675 9.74362 45.2588 9.17248C44.8425 8.60138 44.264 8.32631 43.6039 8.03451C42.9437 7.74266 42.1882 7.48023 41.4321 7.23728C40.676 6.99438 39.92 6.77247 39.2973 6.55585C38.6746 6.33897 38.1648 6.09764 38.0212 5.99363C37.8775 5.88936 37.4949 5.48012 37.0953 4.95639C36.6957 4.43267 36.2398 3.78932 35.7736 3.1471C35.3076 2.50488 34.8373 1.86875 34.3544 1.33276C33.8716 0.796792 33.4246 0.340358 32.7517 0.122651C32.4995 0.041187 32.2524 0.00510268 32.0045 0.000815084ZM32.1072 1.7379C32.1697 1.74115 32.2091 1.74244 32.2235 1.74829C32.2789 1.76713 32.6754 2.04066 33.0787 2.48844C33.4821 2.93618 33.9305 3.53198 34.3852 4.15842C34.8398 4.78485 35.2913 5.44314 35.7236 6.00971C36.1559 6.57629 36.539 7.04974 37.0149 7.39437C37.4907 7.73905 38.0551 7.94213 38.7287 8.1765C39.4022 8.41066 40.1596 8.64272 40.8971 8.87972C41.6346 9.11654 42.3525 9.36104 42.9039 9.60476C43.4554 9.84844 43.8261 10.1421 43.8602 10.1889C43.8944 10.236 44.0635 10.6774 44.1261 11.2765C44.1889 11.8754 44.2026 12.636 44.202 13.4097C44.2011 14.1833 44.1889 14.9718 44.2052 15.6839C44.2215 16.396 44.2404 17.0022 44.4222 17.5603C44.6044 18.1184 44.9445 18.6185 45.3516 19.2034C45.7586 19.7884 46.2345 20.4301 46.6916 21.0546C47.1488 21.6792 47.5877 22.2894 47.8904 22.8103C48.1931 23.3312 48.3181 23.7912 48.3178 23.8492C48.3174 23.9055 48.1904 24.3586 47.8885 24.8798C47.5868 25.4013 47.1544 26.015 46.6982 26.6404C46.2421 27.2657 45.7625 27.906 45.3564 28.4916C44.9503 29.0771 44.6133 29.5763 44.4322 30.1347C44.251 30.693 44.2249 31.299 44.21 32.0112C44.1937 32.7233 44.2165 33.5218 44.2197 34.2954C44.2219 35.0691 44.2067 35.8245 44.1458 36.4236C44.0842 37.0228 43.9223 37.4644 43.888 37.5112C43.8538 37.5576 43.4811 37.8521 42.9301 38.097C42.379 38.3417 41.6619 38.5816 40.925 38.8202C40.1877 39.0583 39.4281 39.2964 38.755 39.5321C38.0816 39.7673 37.5113 39.9771 37.0362 40.3229C36.5608 40.6681 36.1847 41.1436 35.7533 41.7109C35.322 42.2783 34.8752 42.9315 34.4216 43.5588C33.968 44.186 33.5127 44.7887 33.1101 45.2371C32.7074 45.6853 32.3166 45.9392 32.2617 45.9574C32.2069 45.9756 31.7284 45.9986 31.1388 45.8736C30.5489 45.748 29.8231 45.5311 29.0866 45.2912C28.35 45.0514 27.6014 44.7925 26.9181 44.5879C26.2348 44.383 25.6591 44.2182 25.0713 44.2187C24.4835 44.2193 23.8921 44.3787 23.2092 44.5845C22.5263 44.7903 21.777 45.0549 21.0409 45.2963C20.3047 45.5376 19.5747 45.755 18.9851 45.8818C18.3954 46.0081 17.9241 45.9955 17.869 45.9776C17.8136 45.9588 17.422 45.6968 17.0188 45.2492C16.6155 44.8015 16.162 44.1939 15.7074 43.5675C15.2527 42.9411 14.8063 42.2946 14.374 41.728C13.9417 41.1614 13.5585 40.6863 13.0827 40.3416C12.6068 39.997 12.0374 39.7838 11.3638 39.5495C10.6903 39.3153 9.93462 39.0849 9.19706 38.8479C8.45957 38.611 7.74009 38.3666 7.18857 38.1228C6.63712 37.8792 6.2664 37.5838 6.23232 37.5371C6.19811 37.49 6.02901 37.0503 5.96645 36.4512C5.90389 35.8522 5.89477 35.1016 5.89575 34.328C5.89663 33.5543 5.90878 32.7643 5.89249 32.0522C5.8762 31.3401 5.85242 30.7238 5.67028 30.1656C5.48815 29.6075 5.14809 29.1075 4.74098 28.5225C4.33399 27.9376 3.86315 27.306 3.40596 26.6814C2.94877 26.0567 2.50656 25.4383 2.20387 24.9174C1.90119 24.3965 1.77933 23.9464 1.77969 23.8885C1.78011 23.8322 1.90708 23.3778 2.20899 22.8563C2.5107 22.3347 2.93805 21.7127 3.39423 21.0873C3.85041 20.462 4.335 19.8301 4.74104 19.2444C5.14714 18.6589 5.48078 18.1514 5.66197 17.5929C5.84313 17.0346 5.86919 16.4286 5.88418 15.7165C5.90047 15.0043 5.88135 14.2143 5.87767 13.4406C5.87548 12.667 5.8907 11.9132 5.95163 11.3141C6.01321 10.715 6.17514 10.2716 6.20903 10.2249C6.24324 10.1784 6.61598 9.88395 7.16697 9.63907C7.71807 9.39438 8.42982 9.14372 9.16706 8.90564C9.90426 8.66755 10.6689 8.44098 11.3422 8.20579C12.0153 7.97011 12.576 7.76457 13.0513 7.41934C13.5267 7.07412 13.8975 6.58971 14.3292 6.02293C14.7605 5.45547 15.224 4.80723 15.6777 4.18006C16.1313 3.55279 16.5849 2.9484 16.9875 2.50001C17.39 2.05137 17.7776 1.78951 17.8327 1.77181C17.8875 1.75362 18.3643 1.72891 18.9539 1.85396C19.5438 1.9795 20.2645 2.21154 21.0011 2.45146C21.7376 2.69125 22.4964 2.94504 23.1797 3.14968C23.863 3.35454 24.4386 3.51936 25.0265 3.51889C25.6143 3.51822 26.2005 3.34865 26.8834 3.14287C27.5663 2.9371 28.3206 2.68394 29.057 2.44313C29.7931 2.20179 30.5077 1.97692 31.0975 1.85067C31.5397 1.75586 31.9211 1.73413 32.1072 1.7379ZM25.048 10.1281C17.4602 10.1281 11.2925 16.2881 11.2917 23.8606C11.2917 31.4349 17.4602 37.6014 25.048 37.6014C32.6358 37.6015 38.8057 31.4342 38.8061 23.8606C38.8061 16.2862 32.6357 10.1282 25.048 10.1281ZM25.048 11.8468C31.7026 11.8468 37.0804 17.2135 37.0804 23.8606C37.0804 30.5076 31.7026 35.8828 25.048 35.8828C18.3934 35.8828 13.0156 30.5076 13.0156 23.8606C13.0156 17.2135 18.3934 11.8468 25.048 11.8468ZM31.4051 18.8305C31.178 18.8314 30.9604 18.9216 30.7997 19.0815L23.1698 26.8087L19.2942 22.8814C19.215 22.8006 19.1204 22.7362 19.0161 22.6918C18.9118 22.6475 18.7998 22.6241 18.6864 22.6231C18.573 22.622 18.4606 22.6432 18.3554 22.6855C18.2503 22.7278 18.1546 22.7904 18.0737 22.8697C17.9926 22.9486 17.9279 23.0428 17.8833 23.1467C17.8387 23.2507 17.8152 23.3623 17.814 23.4754C17.8127 23.5884 17.8339 23.7006 17.8763 23.8054C17.9186 23.9103 17.9813 24.0058 18.0607 24.0865L22.5592 28.6349C22.6394 28.7161 22.7351 28.7807 22.8406 28.8247C22.9461 28.8687 23.0593 28.8914 23.1737 28.8914C23.288 28.8914 23.4013 28.8687 23.5067 28.8246C23.6122 28.7805 23.7079 28.716 23.7881 28.6347L32.0274 20.2881C32.1863 20.1254 32.2741 19.9066 32.2716 19.6795C32.2692 19.4525 32.1767 19.2356 32.0144 19.0763C31.8522 18.9164 31.6333 18.8296 31.4051 18.8305Z" fill="#424B5A"/>
</svg>
