<svg width="50" height="51" viewBox="0 0 50 51" fill="none" xmlns="http://www.w3.org/2000/svg">
<path d="M21.1363 16.5394C21.1363 14.3681 19.3483 12.5801 17.1133 12.5801C14.9422 12.5801 13.1543 14.3681 13.1543 16.5394C13.1543 18.7745 14.9422 20.5619 17.1133 20.5619C19.3483 20.5619 21.1363 18.7745 21.1363 16.5394Z" fill="#424B5A"/>
<path d="M33.7808 24.7773C33.0145 24.7773 32.4398 25.352 32.4398 26.1181C32.4398 27.7786 31.6096 29.247 30.3325 30.3966C28.9276 31.546 27.0119 32.2482 24.9046 32.2482C22.7335 32.2482 20.8178 31.546 19.4769 30.3966C18.1359 29.247 17.3057 27.7786 17.3057 26.1181C17.3057 25.352 16.7309 24.7773 16.0285 24.7773C15.2622 24.7773 14.6875 25.352 14.6875 26.1181C14.6875 28.5447 15.9009 30.7798 17.7527 32.3758C19.6044 33.9087 22.095 34.8662 24.9046 34.8662C27.6504 34.8662 30.141 33.9087 31.9928 32.3758C33.9084 30.7798 35.0579 28.5447 35.0579 26.1181C35.0579 25.352 34.4832 24.7773 33.7808 24.7773Z" fill="#424B5A"/>
<path d="M48.7229 17.1139H48.3397V15.8367C48.3397 15.1339 47.7651 14.4954 47.0627 14.4954C46.424 14.4954 45.9132 14.9425 45.7855 15.4534C44.6998 12.005 42.7841 8.87623 40.2937 6.38576C36.3347 2.42648 30.9068 0 24.9042 0C18.8378 0 13.4099 2.42648 9.4509 6.38576C7.02435 8.81235 5.10866 11.8774 4.08688 15.262C3.95915 14.6873 3.38448 14.2401 2.80981 14.2401C2.04339 14.2401 1.46872 14.8149 1.46872 15.581V17.4328C1.4049 17.4328 1.4049 17.4328 1.34105 17.4328C0.638651 17.4328 0 18.0076 0 18.71V24.8405C0 25.6067 0.638651 26.1814 1.34105 26.1814C1.4049 26.1814 1.4049 26.1814 1.46872 26.1814V27.5223C1.46872 28.097 1.85184 28.6079 2.42652 28.7355C2.80981 33.9718 5.36405 38.6335 9.3232 42.082C12.7075 45.0832 17.1136 47.1902 21.9669 47.8926C22.0946 49.4253 23.3716 50.5748 24.9042 50.5748C26.5007 50.5748 27.7778 49.2978 27.7778 47.7011C27.7778 46.1046 26.5007 44.7637 24.9042 44.7637C23.5634 44.7637 22.4777 45.658 22.0946 46.8712C17.4329 46.1683 13.2185 44.189 10.0256 41.3153C6.258 37.995 3.83145 33.5886 3.44833 28.6079C3.70372 28.4804 3.89527 28.2884 3.95915 28.0331C5.04478 31.5455 6.96047 34.6742 9.4509 37.2284C13.4099 41.1877 18.8378 43.6141 24.9042 43.6141C30.9068 43.6141 36.3347 41.1877 40.2937 37.2284C42.7841 34.7381 44.6998 31.6092 45.7855 28.097C45.9132 28.6716 46.424 29.055 47.0627 29.055C47.7651 29.055 48.3397 28.4804 48.3397 27.778V25.798C48.4674 25.798 48.5951 25.8618 48.7229 25.8618C49.4253 25.8618 50 25.2233 50 24.5209V18.3909C50 17.6885 49.4253 17.1139 48.7229 17.1139ZM38.4418 35.3766C34.9937 38.8249 30.2044 40.9964 24.9042 40.9964C19.604 40.9964 14.8148 38.8249 11.3027 35.3766C7.85442 31.8644 5.68333 27.0751 5.68333 21.7754C5.68333 16.4754 7.85442 11.686 11.3027 8.23764C14.8148 4.78922 19.604 2.61793 24.9042 2.61793C30.2044 2.61793 34.9937 4.78922 38.4418 8.23764C41.8902 11.686 44.0613 16.4754 44.0613 21.7754C44.0613 27.0751 41.8902 31.8644 38.4418 35.3766Z" fill="#424B5A"/>
<path d="M32.8859 12.707C30.7148 12.707 28.9268 14.495 28.9268 16.6663C28.9268 18.9014 30.7148 20.6894 32.8859 20.6894C35.1209 20.6894 36.9089 18.9014 36.9089 16.6663C36.9089 14.495 35.1209 12.707 32.8859 12.707Z" fill="#424B5A"/>
</svg>
